<?xml version="1.0" encoding="us-ascii" standalone="no"?><svg xmlns="http://www.w3.org/2000/svg" xmlns:xlink="http://www.w3.org/1999/xlink" contentStyleType="text/css" height="1767px" preserveAspectRatio="none" style="width:631px;height:1767px;background:#FFFFFF;" version="1.1" viewBox="0 0 631 1767" width="631px" zoomAndPan="magnify"><defs/><g><text fill="#000000" font-family="sans-serif" font-size="14" font-weight="bold" lengthAdjust="spacing" textLength="112" x="258.125" y="33.5352">&#12450;&#12463;&#12486;&#12451;&#12499;&#12486;&#12451;&#22259;</text><ellipse cx="295.25" cy="57.4883" fill="#222222" rx="10" ry="10" style="stroke:#222222;stroke-width:1.0;"/><rect fill="#F1F1F1" height="34.1328" rx="12.5" ry="12.5" style="stroke:#181818;stroke-width:0.5;" width="140" x="225.25" y="87.4883"/><text fill="#000000" font-family="sans-serif" font-size="12" lengthAdjust="spacing" textLength="120" x="235.25" y="109.0898">&#12525;&#12464;&#12452;&#12531;&#30011;&#38754;&#21021;&#26399;&#34920;&#31034;</text><rect fill="#F1F1F1" height="34.1328" rx="12.5" ry="12.5" style="stroke:#181818;stroke-width:0.5;" width="140" x="225.25" y="141.6211"/><text fill="#000000" font-family="sans-serif" font-size="12" lengthAdjust="spacing" textLength="120" x="235.25" y="163.2227">ID&#12392;&#12497;&#12473;&#12527;&#12540;&#12489;&#12434;&#20837;&#21147;</text><polygon fill="#F1F1F1" points="234.75,239.7539,355.75,239.7539,367.75,251.7539,355.75,263.7539,234.75,263.7539,222.75,251.7539,234.75,239.7539" style="stroke:#181818;stroke-width:0.5;"/><text fill="#000000" font-family="sans-serif" font-size="11" lengthAdjust="spacing" textLength="121" x="234.75" y="255.9111">ID&#12392;&#12497;&#12473;&#12527;&#12540;&#12489;&#12364;&#27491;&#12375;&#12356;</text><text fill="#000000" font-family="sans-serif" font-size="11" lengthAdjust="spacing" textLength="19" x="203.75" y="249.4336">Yes</text><text fill="#000000" font-family="sans-serif" font-size="11" lengthAdjust="spacing" textLength="14" x="367.75" y="249.4336">no</text><rect fill="#F1F1F1" height="34.1328" rx="12.5" ry="12.5" style="stroke:#181818;stroke-width:0.5;" width="152" x="301.75" y="273.7539"/><text fill="#000000" font-family="sans-serif" font-size="12" lengthAdjust="spacing" textLength="132" x="311.75" y="295.3555">&#12456;&#12521;&#12540;&#12513;&#12483;&#12475;&#12540;&#12472;&#12434;&#34920;&#31034;</text><rect fill="#F1F1F1" height="34.1328" rx="12.5" ry="12.5" style="stroke:#181818;stroke-width:0.5;" width="176" x="289.75" y="341.3867"/><text fill="#000000" font-family="sans-serif" font-size="12" lengthAdjust="spacing" textLength="156" x="299.75" y="362.9883">&#12525;&#12464;&#12452;&#12531;&#30011;&#38754;&#12395;&#12522;&#12480;&#12452;&#12524;&#12463;&#12488;</text><polygon fill="#F1F1F1" points="295.25,195.7539,307.25,207.7539,295.25,219.7539,283.25,207.7539,295.25,195.7539" style="stroke:#181818;stroke-width:0.5;"/><polygon fill="#F1F1F1" points="240.25,395.5195,350.25,395.5195,362.25,407.5195,350.25,419.5195,240.25,419.5195,228.25,407.5195,240.25,395.5195" style="stroke:#181818;stroke-width:0.5;"/><text fill="#000000" font-family="sans-serif" font-size="11" lengthAdjust="spacing" textLength="110" x="240.25" y="411.6768">ID&#12392;&#12497;&#12473;&#12527;&#12540;&#12489;&#12434;&#20837;&#21147;</text><polygon fill="#F1F1F1" points="295.25,439.5195,307.25,451.5195,295.25,463.5195,283.25,451.5195,295.25,439.5195" style="stroke:#181818;stroke-width:0.5;"/><rect fill="#F1F1F1" height="34.1328" rx="12.5" ry="12.5" style="stroke:#181818;stroke-width:0.5;" width="92" x="249.25" y="483.5195"/><text fill="#000000" font-family="sans-serif" font-size="12" lengthAdjust="spacing" textLength="72" x="259.25" y="505.1211">&#12525;&#12464;&#12452;&#12531;&#25104;&#21151;</text><ellipse cx="295.25" cy="548.6523" fill="none" rx="11" ry="11" style="stroke:#222222;stroke-width:1.0;"/><ellipse cx="295.25" cy="548.6523" fill="#222222" rx="6" ry="6" style="stroke:#222222;stroke-width:1.0;"/><ellipse cx="295.25" cy="579.6523" fill="#222222" rx="10" ry="10" style="stroke:#222222;stroke-width:1.0;"/><rect fill="#F1F1F1" height="34.1328" rx="12.5" ry="12.5" style="stroke:#181818;stroke-width:0.5;" width="128" x="231.25" y="609.6523"/><text fill="#000000" font-family="sans-serif" font-size="12" lengthAdjust="spacing" textLength="108" x="241.25" y="631.2539">&#12467;&#12540;&#12473;&#36092;&#20837;&#30011;&#38754;&#34920;&#31034;</text><polygon fill="#F1F1F1" points="232.25,707.7852,358.25,707.7852,370.25,719.7852,358.25,731.7852,232.25,731.7852,220.25,719.7852,232.25,707.7852" style="stroke:#181818;stroke-width:0.5;"/><text fill="#000000" font-family="sans-serif" font-size="11" lengthAdjust="spacing" textLength="126" x="232.25" y="723.9424">&#12463;&#12540;&#12509;&#12531;&#12434;&#25345;&#12387;&#12390;&#12356;&#12427;&#12363;?</text><text fill="#000000" font-family="sans-serif" font-size="11" lengthAdjust="spacing" textLength="15" x="205.25" y="717.4648">No</text><text fill="#000000" font-family="sans-serif" font-size="11" lengthAdjust="spacing" textLength="19" x="370.25" y="717.4648">Yes</text><rect fill="#F1F1F1" height="34.1328" rx="12.5" ry="12.5" style="stroke:#181818;stroke-width:0.5;" width="176" x="316.25" y="741.7852"/><text fill="#000000" font-family="sans-serif" font-size="12" lengthAdjust="spacing" textLength="156" x="326.25" y="763.3867">&#12463;&#12540;&#12509;&#12531;&#19968;&#35239;&#12434;&#21462;&#24471;&#12375;&#12390;&#34920;&#31034;</text><rect fill="#F1F1F1" height="34.1328" rx="12.5" ry="12.5" style="stroke:#181818;stroke-width:0.5;" width="116" x="346.25" y="844.3955"/><text fill="#000000" font-family="sans-serif" font-size="12" lengthAdjust="spacing" textLength="96" x="356.25" y="865.9971">&#26377;&#21177;&#12394;&#26085;&#20184;&#12434;&#26908;&#32034;</text><rect fill="#F1F1F1" height="34.1328" rx="12.5" ry="12.5" style="stroke:#181818;stroke-width:0.5;" width="116" x="346.25" y="898.5283"/><text fill="#000000" font-family="sans-serif" font-size="12" lengthAdjust="spacing" textLength="96" x="356.25" y="920.1299">&#26377;&#21177;&#12394;&#26522;&#25968;&#12434;&#26908;&#32034;</text><polygon fill="#F1F1F1" points="297.25,967.5947,511.25,967.5947,523.25,979.5947,511.25,991.5947,297.25,991.5947,285.25,979.5947,297.25,967.5947" style="stroke:#181818;stroke-width:0.5;"/><text fill="#000000" font-family="sans-serif" font-size="11" lengthAdjust="spacing" textLength="214" x="297.25" y="983.752">&#12463;&#12540;&#12509;&#12531;&#12364;&#26377;&#21177;&#26399;&#38480;&#20869;&#12363;&#12388;&#21033;&#29992;&#19978;&#38480;&#20197;&#19979;&#12363;?</text><text fill="#000000" font-family="sans-serif" font-size="11" lengthAdjust="spacing" textLength="19" x="266.25" y="977.2744">Yes</text><text fill="#000000" font-family="sans-serif" font-size="11" lengthAdjust="spacing" textLength="15" x="523.25" y="977.2744">No</text><rect fill="#F1F1F1" height="34.1328" rx="12.5" ry="12.5" style="stroke:#181818;stroke-width:0.5;" width="68" x="241.25" y="1001.5947"/><text fill="#000000" font-family="sans-serif" font-size="12" lengthAdjust="spacing" textLength="48" x="251.25" y="1023.1963">&#21106;&#24341;&#20966;&#29702;</text><rect fill="#F1F1F1" height="34.1328" rx="12.5" ry="12.5" style="stroke:#181818;stroke-width:0.5;" width="80" x="493.25" y="1001.5947"/><text fill="#000000" font-family="sans-serif" font-size="12" lengthAdjust="spacing" textLength="60" x="503.25" y="1023.1963">&#12456;&#12521;&#12540;&#34920;&#31034;</text><polygon fill="#F1F1F1" points="404.25,1041.7275,416.25,1053.7275,404.25,1065.7275,392.25,1053.7275,404.25,1041.7275" style="stroke:#181818;stroke-width:0.5;"/><polygon fill="#F1F1F1" points="346.75,795.918,461.75,795.918,473.75,807.918,461.75,819.918,346.75,819.918,334.75,807.918,346.75,795.918" style="stroke:#181818;stroke-width:0.5;"/><text fill="#000000" font-family="sans-serif" font-size="11" lengthAdjust="spacing" textLength="19" x="408.25" y="830.5527">Yes</text><text fill="#000000" font-family="sans-serif" font-size="11" lengthAdjust="spacing" textLength="115" x="346.75" y="812.0752">&#12463;&#12540;&#12509;&#12531;&#12434;&#36984;&#25246;&#12375;&#12383;&#12363;?</text><polygon fill="#F1F1F1" points="404.25,1085.7275,416.25,1097.7275,404.25,1109.7275,392.25,1097.7275,404.25,1085.7275" style="stroke:#181818;stroke-width:0.5;"/><polygon fill="#F1F1F1" points="295.25,663.7852,307.25,675.7852,295.25,687.7852,283.25,675.7852,295.25,663.7852" style="stroke:#181818;stroke-width:0.5;"/><polygon fill="#F1F1F1" points="278.75,1129.7275,311.75,1129.7275,323.75,1141.7275,311.75,1153.7275,278.75,1153.7275,266.75,1141.7275,278.75,1129.7275" style="stroke:#181818;stroke-width:0.5;"/><text fill="#000000" font-family="sans-serif" font-size="11" lengthAdjust="spacing" textLength="33" x="278.75" y="1145.8848">&#12456;&#12521;&#12540;</text><text fill="#000000" font-family="sans-serif" font-size="11" lengthAdjust="spacing" textLength="22" x="323.75" y="1139.4072">&#12354;&#12426;</text><polygon fill="#F1F1F1" points="295.25,1173.7275,307.25,1185.7275,295.25,1197.7275,283.25,1185.7275,295.25,1173.7275" style="stroke:#181818;stroke-width:0.5;"/><rect fill="#F1F1F1" height="34.1328" rx="12.5" ry="12.5" style="stroke:#181818;stroke-width:0.5;" width="116" x="237.25" y="1217.7275"/><text fill="#000000" font-family="sans-serif" font-size="12" lengthAdjust="spacing" textLength="96" x="247.25" y="1239.3291">&#12467;&#12540;&#12473;&#26009;&#37329;&#12434;&#34920;&#31034;</text><polygon fill="#F1F1F1" points="232.25,1327.9951,358.25,1327.9951,370.25,1339.9951,358.25,1351.9951,232.25,1351.9951,220.25,1339.9951,232.25,1327.9951" style="stroke:#181818;stroke-width:0.5;"/><text fill="#000000" font-family="sans-serif" font-size="11" lengthAdjust="spacing" textLength="126" x="232.25" y="1344.1523">&#36092;&#20837;&#24773;&#22577;&#12434;&#25345;&#12387;&#12390;&#12356;&#12427;&#12363;?</text><text fill="#000000" font-family="sans-serif" font-size="11" lengthAdjust="spacing" textLength="19" x="201.25" y="1337.6748">Yes</text><text fill="#000000" font-family="sans-serif" font-size="11" lengthAdjust="spacing" textLength="15" x="370.25" y="1337.6748">No</text><rect fill="#F1F1F1" height="34.1328" rx="12.5" ry="12.5" style="stroke:#181818;stroke-width:0.5;" width="128" x="57.5" y="1361.9951"/><text fill="#000000" font-family="sans-serif" font-size="12" lengthAdjust="spacing" textLength="108" x="67.5" y="1383.5967">&#36092;&#20837;&#30906;&#35469;&#30011;&#38754;&#12395;&#36983;&#31227;</text><rect fill="#F1F1F1" height="34.1328" rx="12.5" ry="12.5" style="stroke:#181818;stroke-width:0.5;" width="68" x="87.5" y="1416.1279"/><text fill="#000000" font-family="sans-serif" font-size="12" lengthAdjust="spacing" textLength="48" x="97.5" y="1437.7295">&#36092;&#20837;&#20966;&#29702;</text><polygon fill="#F1F1F1" points="75,1482.2383,168,1482.2383,180,1494.2383,168,1506.2383,75,1506.2383,63,1494.2383,75,1482.2383" style="stroke:#181818;stroke-width:0.5;"/><text fill="#000000" font-family="sans-serif" font-size="11" lengthAdjust="spacing" textLength="93" x="75" y="1498.3955">&#36092;&#20837;&#12395;&#25104;&#21151;&#12375;&#12383;&#12363;?</text><text fill="#000000" font-family="sans-serif" font-size="11" lengthAdjust="spacing" textLength="19" x="44" y="1491.918">Yes</text><text fill="#000000" font-family="sans-serif" font-size="11" lengthAdjust="spacing" textLength="15" x="180" y="1491.918">No</text><rect fill="#F1F1F1" height="34.1328" rx="12.5" ry="12.5" style="stroke:#181818;stroke-width:0.5;" width="68" x="156" y="1516.2383"/><text fill="#000000" font-family="sans-serif" font-size="12" lengthAdjust="spacing" textLength="48" x="166" y="1537.8398">&#36092;&#20837;&#20013;&#27490;</text><rect fill="#F1F1F1" height="34.1328" rx="12.5" ry="12.5" style="stroke:#181818;stroke-width:0.5;" width="92" x="144" y="1570.3711"/><text fill="#000000" font-family="sans-serif" font-size="12" lengthAdjust="spacing" textLength="72" x="154" y="1591.9727">&#12456;&#12521;&#12540;&#12434;&#34920;&#31034;</text><rect fill="#F1F1F1" height="34.1328" rx="12.5" ry="12.5" style="stroke:#181818;stroke-width:0.5;" width="152" x="393" y="1361.9951"/><text fill="#000000" font-family="sans-serif" font-size="12" lengthAdjust="spacing" textLength="132" x="403" y="1383.5967">&#20491;&#20154;&#24773;&#22577;&#20837;&#21147;&#30011;&#38754;&#12395;&#36983;&#31227;</text><rect fill="#F1F1F1" height="34.1328" rx="12.5" ry="12.5" style="stroke:#181818;stroke-width:0.5;" width="104" x="417" y="1416.1279"/><text fill="#000000" font-family="sans-serif" font-size="12" lengthAdjust="spacing" textLength="84" x="427" y="1437.7295">&#20491;&#20154;&#24773;&#22577;&#12434;&#20837;&#21147;</text><path d="M266,1486.6494 L266,1511.96 A0,0 0 0 0 266,1511.96 L391,1511.96 A0,0 0 0 0 391,1511.96 L391,1504.6494 L411,1499.3047 L391,1496.6494 L391,1496.6494 L381,1486.6494 L266,1486.6494 A0,0 0 0 0 266,1486.6494 " fill="#FEFFDD" style="stroke:#181818;stroke-width:0.5;"/><path d="M381,1486.6494 L381,1496.6494 L391,1496.6494 L381,1486.6494 " fill="#FEFFDD" style="stroke:#181818;stroke-width:0.5;"/><text fill="#000000" font-family="sans-serif" font-size="13" lengthAdjust="spacing" textLength="104" x="272" y="1504.2178">&#20491;&#20154;&#24773;&#22577;&#30331;&#37682;&#30011;&#38754;</text><rect fill="#F1F1F1" height="34.1328" rx="12.5" ry="12.5" style="stroke:#181818;stroke-width:0.5;" width="116" x="411" y="1482.2383"/><text fill="#000000" font-family="sans-serif" font-size="12" lengthAdjust="spacing" textLength="96" x="421" y="1503.8398">&#20491;&#20154;&#24773;&#22577;&#30331;&#37682;&#23436;&#20102;</text><polygon fill="#F1F1F1" points="295.25,1614.5039,307.25,1626.5039,295.25,1638.5039,283.25,1626.5039,295.25,1614.5039" style="stroke:#181818;stroke-width:0.5;"/><polygon fill="#F1F1F1" points="234.75,1271.8604,355.75,1271.8604,367.75,1283.8604,355.75,1295.8604,234.75,1295.8604,222.75,1283.8604,234.75,1271.8604" style="stroke:#181818;stroke-width:0.5;"/><text fill="#000000" font-family="sans-serif" font-size="11" lengthAdjust="spacing" textLength="55" x="299.25" y="1306.4951">&#12456;&#12521;&#12540;&#12354;&#12426;</text><text fill="#000000" font-family="sans-serif" font-size="11" lengthAdjust="spacing" textLength="121" x="234.75" y="1288.0176">&#12467;&#12540;&#12473;&#36092;&#20837;&#30906;&#35469;&#30011;&#38754;&#34920;&#31034;</text><text fill="#000000" font-family="sans-serif" font-size="11" lengthAdjust="spacing" textLength="55" x="167.75" y="1281.54">&#12456;&#12521;&#12540;&#12394;&#12375;</text><rect fill="#F1F1F1" height="34.1328" rx="12.5" ry="12.5" style="stroke:#181818;stroke-width:0.5;" width="68" x="261.25" y="1680.5039"/><text fill="#000000" font-family="sans-serif" font-size="12" lengthAdjust="spacing" textLength="48" x="271.25" y="1702.1055">&#36092;&#20837;&#23436;&#20102;</text><ellipse cx="295.25" cy="1745.6367" fill="none" rx="11" ry="11" style="stroke:#222222;stroke-width:1.0;"/><ellipse cx="295.25" cy="1745.6367" fill="#222222" rx="6" ry="6" style="stroke:#222222;stroke-width:1.0;"/><line style="stroke:#181818;stroke-width:1.0;" x1="295.25" x2="295.25" y1="67.4883" y2="87.4883"/><polygon fill="#181818" points="291.25,77.4883,295.25,87.4883,299.25,77.4883,295.25,81.4883" style="stroke:#181818;stroke-width:1.0;"/><line style="stroke:#181818;stroke-width:1.0;" x1="295.25" x2="295.25" y1="121.6211" y2="141.6211"/><polygon fill="#181818" points="291.25,131.6211,295.25,141.6211,299.25,131.6211,295.25,135.6211" style="stroke:#181818;stroke-width:1.0;"/><line style="stroke:#181818;stroke-width:1.0;" x1="377.75" x2="377.75" y1="307.8867" y2="341.3867"/><polygon fill="#181818" points="373.75,331.3867,377.75,341.3867,381.75,331.3867,377.75,335.3867" style="stroke:#181818;stroke-width:1.0;"/><line style="stroke:#181818;stroke-width:1.0;" x1="222.75" x2="212.75" y1="251.7539" y2="251.7539"/><line style="stroke:#181818;stroke-width:1.0;" x1="212.75" x2="212.75" y1="251.7539" y2="451.5195"/><line style="stroke:#181818;stroke-width:1.0;" x1="212.75" x2="283.25" y1="451.5195" y2="451.5195"/><polygon fill="#181818" points="273.25,447.5195,283.25,451.5195,273.25,455.5195,277.25,451.5195" style="stroke:#181818;stroke-width:1.0;"/><line style="stroke:#181818;stroke-width:1.0;" x1="367.75" x2="377.75" y1="251.7539" y2="251.7539"/><line style="stroke:#181818;stroke-width:1.0;" x1="377.75" x2="377.75" y1="251.7539" y2="273.7539"/><polygon fill="#181818" points="373.75,263.7539,377.75,273.7539,381.75,263.7539,377.75,267.7539" style="stroke:#181818;stroke-width:1.0;"/><line style="stroke:#181818;stroke-width:1.0;" x1="377.75" x2="377.75" y1="375.5195" y2="380.5195"/><line style="stroke:#181818;stroke-width:1.0;" x1="377.75" x2="295.25" y1="380.5195" y2="380.5195"/><line style="stroke:#181818;stroke-width:1.0;" x1="295.25" x2="295.25" y1="380.5195" y2="395.5195"/><polygon fill="#181818" points="291.25,385.5195,295.25,395.5195,299.25,385.5195,295.25,389.5195" style="stroke:#181818;stroke-width:1.0;"/><line style="stroke:#181818;stroke-width:1.0;" x1="295.25" x2="295.25" y1="219.7539" y2="239.7539"/><polygon fill="#181818" points="291.25,229.7539,295.25,239.7539,299.25,229.7539,295.25,233.7539" style="stroke:#181818;stroke-width:1.0;"/><line style="stroke:#181818;stroke-width:1.0;" x1="362.25" x2="487.75" y1="407.5195" y2="407.5195"/><polygon fill="#181818" points="483.75,321.3867,487.75,311.3867,491.75,321.3867,487.75,317.3867" style="stroke:#181818;stroke-width:1.0;"/><line style="stroke:#181818;stroke-width:1.0;" x1="487.75" x2="487.75" y1="207.7539" y2="407.5195"/><line style="stroke:#181818;stroke-width:1.0;" x1="487.75" x2="307.25" y1="207.7539" y2="207.7539"/><polygon fill="#181818" points="317.25,203.7539,307.25,207.7539,317.25,211.7539,313.25,207.7539" style="stroke:#181818;stroke-width:1.0;"/><line style="stroke:#181818;stroke-width:1.0;" x1="295.25" x2="295.25" y1="419.5195" y2="439.5195"/><polygon fill="#181818" points="291.25,429.5195,295.25,439.5195,299.25,429.5195,295.25,433.5195" style="stroke:#181818;stroke-width:1.0;"/><line style="stroke:#181818;stroke-width:1.0;" x1="295.25" x2="295.25" y1="175.7539" y2="195.7539"/><polygon fill="#181818" points="291.25,185.7539,295.25,195.7539,299.25,185.7539,295.25,189.7539" style="stroke:#181818;stroke-width:1.0;"/><line style="stroke:#181818;stroke-width:1.0;" x1="295.25" x2="295.25" y1="463.5195" y2="483.5195"/><polygon fill="#181818" points="291.25,473.5195,295.25,483.5195,299.25,473.5195,295.25,477.5195" style="stroke:#181818;stroke-width:1.0;"/><line style="stroke:#181818;stroke-width:1.0;" x1="295.25" x2="295.25" y1="517.6523" y2="537.6523"/><polygon fill="#181818" points="291.25,527.6523,295.25,537.6523,299.25,527.6523,295.25,531.6523" style="stroke:#181818;stroke-width:1.0;"/><line style="stroke:#181818;stroke-width:1.0;" x1="295.25" x2="295.25" y1="589.6523" y2="609.6523"/><polygon fill="#181818" points="291.25,599.6523,295.25,609.6523,299.25,599.6523,295.25,603.6523" style="stroke:#181818;stroke-width:1.0;"/><line style="stroke:#181818;stroke-width:1.0;" x1="404.25" x2="404.25" y1="878.5283" y2="898.5283"/><polygon fill="#181818" points="400.25,888.5283,404.25,898.5283,408.25,888.5283,404.25,892.5283" style="stroke:#181818;stroke-width:1.0;"/><line style="stroke:#181818;stroke-width:1.0;" x1="285.25" x2="275.25" y1="979.5947" y2="979.5947"/><line style="stroke:#181818;stroke-width:1.0;" x1="275.25" x2="275.25" y1="979.5947" y2="1001.5947"/><polygon fill="#181818" points="271.25,991.5947,275.25,1001.5947,279.25,991.5947,275.25,995.5947" style="stroke:#181818;stroke-width:1.0;"/><line style="stroke:#181818;stroke-width:1.0;" x1="523.25" x2="533.25" y1="979.5947" y2="979.5947"/><line style="stroke:#181818;stroke-width:1.0;" x1="533.25" x2="533.25" y1="979.5947" y2="1001.5947"/><polygon fill="#181818" points="529.25,991.5947,533.25,1001.5947,537.25,991.5947,533.25,995.5947" style="stroke:#181818;stroke-width:1.0;"/><line style="stroke:#181818;stroke-width:1.0;" x1="275.25" x2="275.25" y1="1035.7275" y2="1053.7275"/><line style="stroke:#181818;stroke-width:1.0;" x1="275.25" x2="392.25" y1="1053.7275" y2="1053.7275"/><polygon fill="#181818" points="382.25,1049.7275,392.25,1053.7275,382.25,1057.7275,386.25,1053.7275" style="stroke:#181818;stroke-width:1.0;"/><line style="stroke:#181818;stroke-width:1.0;" x1="533.25" x2="533.25" y1="1035.7275" y2="1053.7275"/><line style="stroke:#181818;stroke-width:1.0;" x1="533.25" x2="416.25" y1="1053.7275" y2="1053.7275"/><polygon fill="#181818" points="426.25,1049.7275,416.25,1053.7275,426.25,1057.7275,422.25,1053.7275" style="stroke:#181818;stroke-width:1.0;"/><line style="stroke:#181818;stroke-width:1.0;" x1="404.25" x2="404.25" y1="932.6611" y2="967.5947"/><polygon fill="#181818" points="400.25,957.5947,404.25,967.5947,408.25,957.5947,404.25,961.5947" style="stroke:#181818;stroke-width:1.0;"/><line style="stroke:#181818;stroke-width:1.0;" x1="404.25" x2="404.25" y1="819.918" y2="844.3955"/><polygon fill="#181818" points="400.25,834.3955,404.25,844.3955,408.25,834.3955,404.25,838.3955" style="stroke:#181818;stroke-width:1.0;"/><line style="stroke:#181818;stroke-width:1.0;" x1="473.75" x2="587.25" y1="807.918" y2="807.918"/><polygon fill="#181818" points="583.25,937.5947,587.25,947.5947,591.25,937.5947,587.25,941.5947" style="stroke:#181818;stroke-width:1.0;"/><line style="stroke:#181818;stroke-width:1.0;" x1="587.25" x2="587.25" y1="807.918" y2="1097.7275"/><line style="stroke:#181818;stroke-width:1.0;" x1="587.25" x2="416.25" y1="1097.7275" y2="1097.7275"/><polygon fill="#181818" points="426.25,1093.7275,416.25,1097.7275,426.25,1101.7275,422.25,1097.7275" style="stroke:#181818;stroke-width:1.0;"/><line style="stroke:#181818;stroke-width:1.0;" x1="404.25" x2="404.25" y1="1065.7275" y2="1085.7275"/><polygon fill="#181818" points="400.25,1075.7275,404.25,1085.7275,408.25,1075.7275,404.25,1079.7275" style="stroke:#181818;stroke-width:1.0;"/><line style="stroke:#181818;stroke-width:1.0;" x1="404.25" x2="404.25" y1="775.918" y2="795.918"/><polygon fill="#181818" points="400.25,785.918,404.25,795.918,408.25,785.918,404.25,789.918" style="stroke:#181818;stroke-width:1.0;"/><line style="stroke:#181818;stroke-width:1.0;" x1="220.25" x2="186.25" y1="719.7852" y2="719.7852"/><line style="stroke:#181818;stroke-width:1.0;" x1="186.25" x2="186.25" y1="719.7852" y2="1185.7275"/><line style="stroke:#181818;stroke-width:1.0;" x1="186.25" x2="283.25" y1="1185.7275" y2="1185.7275"/><polygon fill="#181818" points="273.25,1181.7275,283.25,1185.7275,273.25,1189.7275,277.25,1185.7275" style="stroke:#181818;stroke-width:1.0;"/><line style="stroke:#181818;stroke-width:1.0;" x1="370.25" x2="404.25" y1="719.7852" y2="719.7852"/><line style="stroke:#181818;stroke-width:1.0;" x1="404.25" x2="404.25" y1="719.7852" y2="741.7852"/><polygon fill="#181818" points="400.25,731.7852,404.25,741.7852,408.25,731.7852,404.25,735.7852" style="stroke:#181818;stroke-width:1.0;"/><line style="stroke:#181818;stroke-width:1.0;" x1="404.25" x2="404.25" y1="1109.7275" y2="1114.7275"/><line style="stroke:#181818;stroke-width:1.0;" x1="404.25" x2="295.25" y1="1114.7275" y2="1114.7275"/><line style="stroke:#181818;stroke-width:1.0;" x1="295.25" x2="295.25" y1="1114.7275" y2="1129.7275"/><polygon fill="#181818" points="291.25,1119.7275,295.25,1129.7275,299.25,1119.7275,295.25,1123.7275" style="stroke:#181818;stroke-width:1.0;"/><line style="stroke:#181818;stroke-width:1.0;" x1="295.25" x2="295.25" y1="687.7852" y2="707.7852"/><polygon fill="#181818" points="291.25,697.7852,295.25,707.7852,299.25,697.7852,295.25,701.7852" style="stroke:#181818;stroke-width:1.0;"/><line style="stroke:#181818;stroke-width:1.0;" x1="323.75" x2="605.25" y1="1141.7275" y2="1141.7275"/><polygon fill="#181818" points="601.25,909.0283,605.25,899.0283,609.25,909.0283,605.25,905.0283" style="stroke:#181818;stroke-width:1.0;"/><line style="stroke:#181818;stroke-width:1.0;" x1="605.25" x2="605.25" y1="675.7852" y2="1141.7275"/><line style="stroke:#181818;stroke-width:1.0;" x1="605.25" x2="307.25" y1="675.7852" y2="675.7852"/><polygon fill="#181818" points="317.25,671.7852,307.25,675.7852,317.25,679.7852,313.25,675.7852" style="stroke:#181818;stroke-width:1.0;"/><line style="stroke:#181818;stroke-width:1.0;" x1="295.25" x2="295.25" y1="1153.7275" y2="1173.7275"/><polygon fill="#181818" points="291.25,1163.7275,295.25,1173.7275,299.25,1163.7275,295.25,1167.7275" style="stroke:#181818;stroke-width:1.0;"/><line style="stroke:#181818;stroke-width:1.0;" x1="295.25" x2="295.25" y1="643.7852" y2="663.7852"/><polygon fill="#181818" points="291.25,653.7852,295.25,663.7852,299.25,653.7852,295.25,657.7852" style="stroke:#181818;stroke-width:1.0;"/><line style="stroke:#181818;stroke-width:1.0;" x1="295.25" x2="295.25" y1="1197.7275" y2="1217.7275"/><polygon fill="#181818" points="291.25,1207.7275,295.25,1217.7275,299.25,1207.7275,295.25,1211.7275" style="stroke:#181818;stroke-width:1.0;"/><line style="stroke:#181818;stroke-width:1.0;" x1="121.5" x2="121.5" y1="1396.1279" y2="1416.1279"/><polygon fill="#181818" points="117.5,1406.1279,121.5,1416.1279,125.5,1406.1279,121.5,1410.1279" style="stroke:#181818;stroke-width:1.0;"/><line style="stroke:#181818;stroke-width:1.0;" x1="190" x2="190" y1="1550.3711" y2="1570.3711"/><polygon fill="#181818" points="186,1560.3711,190,1570.3711,194,1560.3711,190,1564.3711" style="stroke:#181818;stroke-width:1.0;"/><line style="stroke:#181818;stroke-width:1.0;" x1="63" x2="53" y1="1494.2383" y2="1494.2383"/><line style="stroke:#181818;stroke-width:1.0;" x1="53" x2="53" y1="1494.2383" y2="1516.2383"/><line style="stroke:#181818;stroke-width:1.0;" x1="53" x2="24" y1="1516.2383" y2="1516.2383"/><polygon fill="#181818" points="34,1512.2383,24,1516.2383,34,1520.2383,30,1516.2383" style="stroke:#181818;stroke-width:1.0;"/><line style="stroke:#181818;stroke-width:1.0;" x1="180" x2="190" y1="1494.2383" y2="1494.2383"/><line style="stroke:#181818;stroke-width:1.0;" x1="190" x2="190" y1="1494.2383" y2="1516.2383"/><polygon fill="#181818" points="186,1506.2383,190,1516.2383,194,1506.2383,190,1510.2383" style="stroke:#181818;stroke-width:1.0;"/><line style="stroke:#181818;stroke-width:1.0;" x1="190" x2="190" y1="1604.5039" y2="1626.5039"/><line style="stroke:#181818;stroke-width:1.0;" x1="190" x2="283.25" y1="1626.5039" y2="1626.5039"/><polygon fill="#181818" points="273.25,1622.5039,283.25,1626.5039,273.25,1630.5039,277.25,1626.5039" style="stroke:#181818;stroke-width:1.0;"/><line style="stroke:#181818;stroke-width:1.0;" x1="121.5" x2="121.5" y1="1450.2607" y2="1482.2383"/><polygon fill="#181818" points="117.5,1472.2383,121.5,1482.2383,125.5,1472.2383,121.5,1476.2383" style="stroke:#181818;stroke-width:1.0;"/><line style="stroke:#181818;stroke-width:1.0;" x1="469" x2="469" y1="1396.1279" y2="1416.1279"/><polygon fill="#181818" points="465,1406.1279,469,1416.1279,473,1406.1279,469,1410.1279" style="stroke:#181818;stroke-width:1.0;"/><line style="stroke:#181818;stroke-width:1.0;" x1="469" x2="469" y1="1450.2607" y2="1482.2383"/><polygon fill="#181818" points="465,1472.2383,469,1482.2383,473,1472.2383,469,1476.2383" style="stroke:#181818;stroke-width:1.0;"/><line style="stroke:#181818;stroke-width:1.0;" x1="220.25" x2="121.5" y1="1339.9951" y2="1339.9951"/><line style="stroke:#181818;stroke-width:1.0;" x1="121.5" x2="121.5" y1="1339.9951" y2="1361.9951"/><polygon fill="#181818" points="117.5,1351.9951,121.5,1361.9951,125.5,1351.9951,121.5,1355.9951" style="stroke:#181818;stroke-width:1.0;"/><line style="stroke:#181818;stroke-width:1.0;" x1="370.25" x2="469" y1="1339.9951" y2="1339.9951"/><line style="stroke:#181818;stroke-width:1.0;" x1="469" x2="469" y1="1339.9951" y2="1361.9951"/><polygon fill="#181818" points="465,1351.9951,469,1361.9951,473,1351.9951,469,1355.9951" style="stroke:#181818;stroke-width:1.0;"/><line style="stroke:#181818;stroke-width:1.0;" x1="469" x2="469" y1="1516.3711" y2="1626.5039"/><line style="stroke:#181818;stroke-width:1.0;" x1="469" x2="307.25" y1="1626.5039" y2="1626.5039"/><polygon fill="#181818" points="317.25,1622.5039,307.25,1626.5039,317.25,1630.5039,313.25,1626.5039" style="stroke:#181818;stroke-width:1.0;"/><line style="stroke:#181818;stroke-width:1.0;" x1="295.25" x2="295.25" y1="1295.8604" y2="1327.9951"/><polygon fill="#181818" points="291.25,1317.9951,295.25,1327.9951,299.25,1317.9951,295.25,1321.9951" style="stroke:#181818;stroke-width:1.0;"/><line style="stroke:#181818;stroke-width:1.0;" x1="295.25" x2="295.25" y1="1638.5039" y2="1648.5039"/><line style="stroke:#181818;stroke-width:1.0;" x1="295.25" x2="567" y1="1648.5039" y2="1648.5039"/><polygon fill="#181818" points="563,1474.2607,567,1464.2607,571,1474.2607,567,1470.2607" style="stroke:#181818;stroke-width:1.0;"/><line style="stroke:#181818;stroke-width:1.0;" x1="567" x2="567" y1="1283.8604" y2="1648.5039"/><line style="stroke:#181818;stroke-width:1.0;" x1="567" x2="367.75" y1="1283.8604" y2="1283.8604"/><polygon fill="#181818" points="377.75,1279.8604,367.75,1283.8604,377.75,1287.8604,373.75,1283.8604" style="stroke:#181818;stroke-width:1.0;"/><line style="stroke:#181818;stroke-width:1.0;" x1="222.75" x2="24" y1="1283.8604" y2="1283.8604"/><polygon fill="#181818" points="20,1460.2607,24,1470.2607,28,1460.2607,24,1464.2607" style="stroke:#181818;stroke-width:1.0;"/><line style="stroke:#181818;stroke-width:1.0;" x1="24" x2="24" y1="1283.8604" y2="1660.5039"/><line style="stroke:#181818;stroke-width:1.0;" x1="24" x2="295.25" y1="1660.5039" y2="1660.5039"/><line style="stroke:#181818;stroke-width:1.0;" x1="295.25" x2="295.25" y1="1660.5039" y2="1680.5039"/><polygon fill="#181818" points="291.25,1670.5039,295.25,1680.5039,299.25,1670.5039,295.25,1674.5039" style="stroke:#181818;stroke-width:1.0;"/><line style="stroke:#181818;stroke-width:1.0;" x1="295.25" x2="295.25" y1="1251.8604" y2="1271.8604"/><polygon fill="#181818" points="291.25,1261.8604,295.25,1271.8604,299.25,1261.8604,295.25,1265.8604" style="stroke:#181818;stroke-width:1.0;"/><line style="stroke:#181818;stroke-width:1.0;" x1="295.25" x2="295.25" y1="1714.6367" y2="1734.6367"/><polygon fill="#181818" points="291.25,1724.6367,295.25,1734.6367,299.25,1724.6367,295.25,1728.6367" style="stroke:#181818;stroke-width:1.0;"/><!--SRC=[ZPHFSz906CRl-HGvagy01ozUl7ZouX77C6Lae0EPyShk2eM08zMsY8NMKg0KHMjnna0OlyoRJSYtSDa4iac0COVCRlB-UVQtpwwMrNAg3BWF-2UGAk1R89-y0RsSIIKjNTGaAGba2lW1y038p3aptLwVrdfsztfrCtO6YvIKVFOKq1Z8AU0v45Pf2QGE-2Ej3Ab-cPAaedgifZL9Pays8oTsXgEcFRq5r0RqJf5V7AbvEV5IBIayQVsyAghfDtocvaggdCWNWdz9mApUFQzq0uG0DjTZR30H6v51R6mrWBu1cG0fyu_VEOoQbw7cNsSpldxvxL6MuKeSNAqIuMNNMbI_PWnAMk5O2f3Y6LSuNysMBD7JiP4QmSNri2OzLexriPi842CrOgG0Dm0rdYYone4zB-pd5OAP56jQHdarkbkluCC5_TlcUp2AOjiXn4M6hL_ny6jHHQWJxsPtwrIV0vhOxQ5bVbulOj1rVlTJ-yAkljZd3tl2OagOStWYSwJRQT5gXOa1DA2rU-TiR1aw-sYPGyje71J95T3w8rsUqvEHqwg6kteGHS1nyqMP1GQApxnHn5dRIegSBR4fme1rHRIBVT5nJqu5MqlRrB2X-elLvBreAx_azg3ujJT4lJIRLEZNNuTD5ZPIl1qxJIxwuzoPgMXKb6lGb-Lu1-K_t1GOU_- - -0qjOsfFeouB4CGl1s5_OdMJjDom5WiFaNVOzozOZ1Lkmft_dOxfDX_fZwQr4E3a2vegopareuNannCz4U8IUAxWClQE6emTCePwRIr_Q_pk_9hw1m00]--></g></svg>