<?xml version="1.0" encoding="us-ascii" standalone="no"?><svg xmlns="http://www.w3.org/2000/svg" xmlns:xlink="http://www.w3.org/1999/xlink" contentStyleType="text/css" height="1219px" preserveAspectRatio="none" style="width:1008px;height:1219px;background:#FFFFFF;" version="1.1" viewBox="0 0 1008 1219" width="1008px" zoomAndPan="magnify"><defs/><g><text fill="#000000" font-family="sans-serif" font-size="14" font-weight="bold" lengthAdjust="spacing" textLength="56" x="469" y="23.5352">&#12463;&#12521;&#12473;&#22259;</text><!--class User--><g id="elem_User"><rect codeLine="3" fill="#F1F1F1" height="163.418" id="User" rx="2.5" ry="2.5" style="stroke:#181818;stroke-width:0.5;" width="94" x="543.5" y="185.4683"/><ellipse cx="572.45" cy="201.4683" fill="#ADD1B2" rx="11" ry="11" style="stroke:#181818;stroke-width:1.0;"/><path d="M574.9231,207.6113 Q574.3421,207.9102 573.7029,208.0596 Q573.0638,208.209 572.3582,208.209 Q569.8514,208.209 568.5315,206.5571 Q567.2117,204.9053 567.2117,201.7842 Q567.2117,198.6548 568.5315,197.0029 Q569.8514,195.3511 572.3582,195.3511 Q573.0638,195.3511 573.7112,195.5005 Q574.3587,195.6499 574.9231,195.9488 L574.9231,198.6714 Q574.2923,198.0904 573.6988,197.8206 Q573.1053,197.5508 572.4744,197.5508 Q571.1297,197.5508 570.4449,198.6175 Q569.7601,199.6841 569.7601,201.7842 Q569.7601,203.876 570.4449,204.9426 Q571.1297,206.0093 572.4744,206.0093 Q573.1053,206.0093 573.6988,205.7395 Q574.2923,205.4697 574.9231,204.8887 Z " fill="#000000"/><text fill="#000000" font-family="sans-serif" font-size="14" lengthAdjust="spacing" textLength="31" x="589.55" y="206.7593">User</text><line style="stroke:#181818;stroke-width:0.5;" x1="544.5" x2="636.5" y1="217.4683" y2="217.4683"/><text fill="#000000" font-family="sans-serif" font-size="14" lengthAdjust="spacing" textLength="50" x="549.5" y="235.0034">user_id</text><text fill="#000000" font-family="sans-serif" font-size="14" lengthAdjust="spacing" textLength="82" x="549.5" y="251.4917">company_id</text><text fill="#000000" font-family="sans-serif" font-size="14" lengthAdjust="spacing" textLength="75" x="549.5" y="267.98">user_name</text><text fill="#000000" font-family="sans-serif" font-size="14" lengthAdjust="spacing" textLength="66" x="549.5" y="284.4683">password</text><text fill="#000000" font-family="sans-serif" font-size="14" lengthAdjust="spacing" textLength="54" x="549.5" y="300.9566">address</text><text fill="#000000" font-family="sans-serif" font-size="14" lengthAdjust="spacing" textLength="27" x="549.5" y="317.4448">role</text><text fill="#000000" font-family="sans-serif" font-size="14" lengthAdjust="spacing" textLength="62" x="549.5" y="333.9331">authority</text><line style="stroke:#181818;stroke-width:0.5;" x1="544.5" x2="636.5" y1="340.8863" y2="340.8863"/></g><g id="elem_GMN3"><path d="M332.5,254.5183 L332.5,279.8288 A0,0 0 0 0 332.5,279.8288 L508.5,279.8288 A0,0 0 0 0 508.5,279.8288 L508.5,272.5183 L543.28,267.1783 L508.5,264.5183 L508.5,264.5183 L498.5,254.5183 L332.5,254.5183 A0,0 0 0 0 332.5,254.5183 " fill="#FEFFDD" style="stroke:#181818;stroke-width:0.5;"/><path d="M498.5,254.5183 L498.5,264.5183 L508.5,264.5183 L498.5,254.5183 " fill="#FEFFDD" style="stroke:#181818;stroke-width:0.5;"/><text fill="#000000" font-family="sans-serif" font-size="13" lengthAdjust="spacing" textLength="155" x="338.5" y="272.0866">role = {Student, Teacher}</text></g><g id="elem_GMN6"><path d="M672.5,254.5183 L672.5,263.1783 L637.68,267.1783 L672.5,271.1783 L672.5,279.8288 A0,0 0 0 0 672.5,279.8288 L874.5,279.8288 A0,0 0 0 0 874.5,279.8288 L874.5,264.5183 L864.5,254.5183 L672.5,254.5183 A0,0 0 0 0 672.5,254.5183 " fill="#FEFFDD" style="stroke:#181818;stroke-width:0.5;"/><path d="M864.5,254.5183 L864.5,264.5183 L874.5,264.5183 L864.5,254.5183 " fill="#FEFFDD" style="stroke:#181818;stroke-width:0.5;"/><text fill="#000000" font-family="sans-serif" font-size="13" lengthAdjust="spacing" textLength="181" x="678.5" y="272.0866">authority = {admin, member}</text></g><!--class Student--><g id="elem_Student"><rect codeLine="21" fill="#F1F1F1" height="97.4648" id="Student" rx="2.5" ry="2.5" style="stroke:#181818;stroke-width:0.5;" width="112" x="645.5" y="566.3483"/><ellipse cx="672.65" cy="582.3483" fill="#ADD1B2" rx="11" ry="11" style="stroke:#181818;stroke-width:1.0;"/><path d="M675.1231,588.4913 Q674.5421,588.7902 673.9029,588.9396 Q673.2638,589.089 672.5582,589.089 Q670.0514,589.089 668.7315,587.4371 Q667.4117,585.7853 667.4117,582.6642 Q667.4117,579.5348 668.7315,577.8829 Q670.0514,576.2311 672.5582,576.2311 Q673.2638,576.2311 673.9112,576.3805 Q674.5587,576.5299 675.1231,576.8288 L675.1231,579.5514 Q674.4923,578.9704 673.8988,578.7006 Q673.3053,578.4308 672.6744,578.4308 Q671.3297,578.4308 670.6449,579.4975 Q669.9601,580.5641 669.9601,582.6642 Q669.9601,584.756 670.6449,585.8226 Q671.3297,586.8893 672.6744,586.8893 Q673.3053,586.8893 673.8988,586.6195 Q674.4923,586.3497 675.1231,585.7687 Z " fill="#000000"/><text fill="#000000" font-family="sans-serif" font-size="14" lengthAdjust="spacing" textLength="53" x="689.35" y="587.6393">Student</text><line style="stroke:#181818;stroke-width:0.5;" x1="646.5" x2="756.5" y1="598.3483" y2="598.3483"/><text fill="#000000" font-family="sans-serif" font-size="14" lengthAdjust="spacing" textLength="50" x="651.5" y="615.8834">user_id</text><text fill="#000000" font-family="sans-serif" font-size="14" lengthAdjust="spacing" textLength="100" x="651.5" y="632.3717">credit_number</text><text fill="#000000" font-family="sans-serif" font-size="14" lengthAdjust="spacing" textLength="76" x="651.5" y="648.86">security_cd</text><line style="stroke:#181818;stroke-width:0.5;" x1="646.5" x2="756.5" y1="655.8131" y2="655.8131"/></g><!--class Teacher--><g id="elem_Teacher"><rect codeLine="27" fill="#F1F1F1" height="80.9766" id="Teacher" rx="2.5" ry="2.5" style="stroke:#181818;stroke-width:0.5;" width="107" x="464" y="408.8883"/><ellipse cx="488" cy="424.8883" fill="#ADD1B2" rx="11" ry="11" style="stroke:#181818;stroke-width:1.0;"/><path d="M490.4731,431.0313 Q489.8921,431.3302 489.2529,431.4796 Q488.6138,431.629 487.9082,431.629 Q485.4014,431.629 484.0815,429.9771 Q482.7617,428.3253 482.7617,425.2042 Q482.7617,422.0748 484.0815,420.4229 Q485.4014,418.7711 487.9082,418.7711 Q488.6138,418.7711 489.2612,418.9205 Q489.9087,419.0699 490.4731,419.3688 L490.4731,422.0914 Q489.8423,421.5104 489.2488,421.2406 Q488.6553,420.9708 488.0244,420.9708 Q486.6797,420.9708 485.9949,422.0375 Q485.3101,423.1041 485.3101,425.2042 Q485.3101,427.296 485.9949,428.3626 Q486.6797,429.4293 488.0244,429.4293 Q488.6553,429.4293 489.2488,429.1595 Q489.8423,428.8897 490.4731,428.3087 Z " fill="#000000"/><text fill="#000000" font-family="sans-serif" font-size="14" lengthAdjust="spacing" textLength="55" x="504" y="430.1793">Teacher</text><line style="stroke:#181818;stroke-width:0.5;" x1="465" x2="570" y1="440.8883" y2="440.8883"/><text fill="#000000" font-family="sans-serif" font-size="14" lengthAdjust="spacing" textLength="50" x="470" y="458.4234">user_id</text><text fill="#000000" font-family="sans-serif" font-size="14" lengthAdjust="spacing" textLength="95" x="470" y="474.9117">bank_number</text><line style="stroke:#181818;stroke-width:0.5;" x1="465" x2="570" y1="481.8648" y2="481.8648"/></g><!--class Company--><g id="elem_Company"><rect codeLine="32" fill="#F1F1F1" height="80.9766" id="Company" rx="2.5" ry="2.5" style="stroke:#181818;stroke-width:0.5;" width="119" x="531" y="44.4883"/><ellipse cx="555.9" cy="60.4883" fill="#ADD1B2" rx="11" ry="11" style="stroke:#181818;stroke-width:1.0;"/><path d="M558.3731,66.6313 Q557.7921,66.9302 557.1529,67.0796 Q556.5138,67.229 555.8082,67.229 Q553.3014,67.229 551.9815,65.5771 Q550.6617,63.9253 550.6617,60.8042 Q550.6617,57.6748 551.9815,56.0229 Q553.3014,54.3711 555.8082,54.3711 Q556.5138,54.3711 557.1612,54.5205 Q557.8087,54.6699 558.3731,54.9688 L558.3731,57.6914 Q557.7423,57.1104 557.1488,56.8406 Q556.5553,56.5708 555.9244,56.5708 Q554.5797,56.5708 553.8949,57.6375 Q553.2101,58.7041 553.2101,60.8042 Q553.2101,62.896 553.8949,63.9626 Q554.5797,65.0293 555.9244,65.0293 Q556.5553,65.0293 557.1488,64.7595 Q557.7423,64.4897 558.3731,63.9087 Z " fill="#000000"/><text fill="#000000" font-family="sans-serif" font-size="14" lengthAdjust="spacing" textLength="65" x="572.1" y="65.7793">Company</text><line style="stroke:#181818;stroke-width:0.5;" x1="532" x2="649" y1="76.4883" y2="76.4883"/><text fill="#000000" font-family="sans-serif" font-size="14" lengthAdjust="spacing" textLength="82" x="537" y="94.0234">company_id</text><text fill="#000000" font-family="sans-serif" font-size="14" lengthAdjust="spacing" textLength="107" x="537" y="110.5117">company_name</text><line style="stroke:#181818;stroke-width:0.5;" x1="532" x2="649" y1="117.4648" y2="117.4648"/></g><!--class Course--><g id="elem_Course"><rect codeLine="37" fill="#F1F1F1" height="130.4414" id="Course" rx="2.5" ry="2.5" style="stroke:#181818;stroke-width:0.5;" width="142" x="247.5" y="549.8583"/><ellipse cx="289.95" cy="565.8583" fill="#ADD1B2" rx="11" ry="11" style="stroke:#181818;stroke-width:1.0;"/><path d="M292.4231,572.0013 Q291.8421,572.3002 291.2029,572.4496 Q290.5638,572.599 289.8582,572.599 Q287.3514,572.599 286.0315,570.9471 Q284.7117,569.2953 284.7117,566.1742 Q284.7117,563.0448 286.0315,561.3929 Q287.3514,559.7411 289.8582,559.7411 Q290.5638,559.7411 291.2112,559.8905 Q291.8587,560.0399 292.4231,560.3388 L292.4231,563.0614 Q291.7923,562.4804 291.1988,562.2106 Q290.6053,561.9408 289.9744,561.9408 Q288.6297,561.9408 287.9449,563.0075 Q287.2601,564.0741 287.2601,566.1742 Q287.2601,568.266 287.9449,569.3326 Q288.6297,570.3993 289.9744,570.3993 Q290.6053,570.3993 291.1988,570.1295 Q291.7923,569.8597 292.4231,569.2787 Z " fill="#000000"/><text fill="#000000" font-family="sans-serif" font-size="14" lengthAdjust="spacing" textLength="49" x="310.05" y="571.1493">Course</text><line style="stroke:#181818;stroke-width:0.5;" x1="248.5" x2="388.5" y1="581.8583" y2="581.8583"/><text fill="#000000" font-family="sans-serif" font-size="14" lengthAdjust="spacing" textLength="66" x="253.5" y="599.3934">course_id</text><text fill="#000000" font-family="sans-serif" font-size="14" lengthAdjust="spacing" textLength="79" x="253.5" y="615.8817">course_title</text><text fill="#000000" font-family="sans-serif" font-size="14" lengthAdjust="spacing" textLength="130" x="253.5" y="632.37">course_description</text><text fill="#000000" font-family="sans-serif" font-size="14" lengthAdjust="spacing" textLength="94" x="253.5" y="648.8583">teach_user_id</text><text fill="#000000" font-family="sans-serif" font-size="14" lengthAdjust="spacing" textLength="127" x="253.5" y="665.3466">amount_of_money</text><line style="stroke:#181818;stroke-width:0.5;" x1="248.5" x2="388.5" y1="672.2997" y2="672.2997"/></g><!--class Section--><g id="elem_Section"><rect codeLine="45" fill="#F1F1F1" height="113.9531" id="Section" rx="2.5" ry="2.5" style="stroke:#181818;stroke-width:0.5;" width="145" x="7" y="781.5183"/><ellipse cx="50.35" cy="797.5183" fill="#ADD1B2" rx="11" ry="11" style="stroke:#181818;stroke-width:1.0;"/><path d="M52.8231,803.6613 Q52.2421,803.9602 51.6029,804.1096 Q50.9638,804.259 50.2582,804.259 Q47.7514,804.259 46.4315,802.6071 Q45.1117,800.9553 45.1117,797.8342 Q45.1117,794.7048 46.4315,793.0529 Q47.7514,791.4011 50.2582,791.4011 Q50.9638,791.4011 51.6112,791.5505 Q52.2587,791.6999 52.8231,791.9988 L52.8231,794.7214 Q52.1923,794.1404 51.5988,793.8706 Q51.0053,793.6008 50.3744,793.6008 Q49.0297,793.6008 48.3449,794.6675 Q47.6601,795.7341 47.6601,797.8342 Q47.6601,799.926 48.3449,800.9926 Q49.0297,802.0593 50.3744,802.0593 Q51.0053,802.0593 51.5988,801.7895 Q52.1923,801.5197 52.8231,800.9387 Z " fill="#000000"/><text fill="#000000" font-family="sans-serif" font-size="14" lengthAdjust="spacing" textLength="50" x="70.65" y="802.8093">Section</text><line style="stroke:#181818;stroke-width:0.5;" x1="8" x2="151" y1="813.5183" y2="813.5183"/><text fill="#000000" font-family="sans-serif" font-size="14" lengthAdjust="spacing" textLength="66" x="13" y="831.0534">course_id</text><text fill="#000000" font-family="sans-serif" font-size="14" lengthAdjust="spacing" textLength="69" x="13" y="847.5417">section_id</text><text fill="#000000" font-family="sans-serif" font-size="14" lengthAdjust="spacing" textLength="82" x="13" y="864.03">section_title</text><text fill="#000000" font-family="sans-serif" font-size="14" lengthAdjust="spacing" textLength="133" x="13" y="880.5183">section_description</text><line style="stroke:#181818;stroke-width:0.5;" x1="8" x2="151" y1="887.4714" y2="887.4714"/></g><!--class Lesson--><g id="elem_Lesson"><rect codeLine="52" fill="#F1F1F1" height="130.4414" id="Lesson" rx="2.5" ry="2.5" style="stroke:#181818;stroke-width:0.5;" width="140" x="9.5" y="996.6983"/><ellipse cx="51.95" cy="1012.6983" fill="#ADD1B2" rx="11" ry="11" style="stroke:#181818;stroke-width:1.0;"/><path d="M54.4231,1018.8413 Q53.8421,1019.1402 53.2029,1019.2896 Q52.5638,1019.439 51.8582,1019.439 Q49.3514,1019.439 48.0315,1017.7871 Q46.7117,1016.1353 46.7117,1013.0142 Q46.7117,1009.8848 48.0315,1008.2329 Q49.3514,1006.5811 51.8582,1006.5811 Q52.5638,1006.5811 53.2112,1006.7305 Q53.8587,1006.8799 54.4231,1007.1788 L54.4231,1009.9014 Q53.7923,1009.3204 53.1988,1009.0506 Q52.6053,1008.7808 51.9744,1008.7808 Q50.6297,1008.7808 49.9449,1009.8475 Q49.2601,1010.9141 49.2601,1013.0142 Q49.2601,1015.106 49.9449,1016.1726 Q50.6297,1017.2393 51.9744,1017.2393 Q52.6053,1017.2393 53.1988,1016.9695 Q53.7923,1016.6997 54.4231,1016.1187 Z " fill="#000000"/><text fill="#000000" font-family="sans-serif" font-size="14" lengthAdjust="spacing" textLength="47" x="72.05" y="1017.9893">Lesson</text><line style="stroke:#181818;stroke-width:0.5;" x1="10.5" x2="148.5" y1="1028.6983" y2="1028.6983"/><text fill="#000000" font-family="sans-serif" font-size="14" lengthAdjust="spacing" textLength="69" x="15.5" y="1046.2334">section_id</text><text fill="#000000" font-family="sans-serif" font-size="14" lengthAdjust="spacing" textLength="64" x="15.5" y="1062.7217">lesson_id</text><text fill="#000000" font-family="sans-serif" font-size="14" lengthAdjust="spacing" textLength="77" x="15.5" y="1079.21">lesson_title</text><text fill="#000000" font-family="sans-serif" font-size="14" lengthAdjust="spacing" textLength="128" x="15.5" y="1095.6983">lesson_description</text><text fill="#000000" font-family="sans-serif" font-size="14" lengthAdjust="spacing" textLength="105" x="15.5" y="1112.1866">update_date_at</text><line style="stroke:#181818;stroke-width:0.5;" x1="10.5" x2="148.5" y1="1119.1397" y2="1119.1397"/></g><!--class StudentBuysCourse--><g id="elem_StudentBuysCourse"><rect codeLine="60" fill="#F1F1F1" height="130.4414" id="StudentBuysCourse" rx="2.5" ry="2.5" style="stroke:#181818;stroke-width:0.5;" width="165" x="408" y="773.2783"/><ellipse cx="423" cy="789.2783" fill="#ADD1B2" rx="11" ry="11" style="stroke:#181818;stroke-width:1.0;"/><path d="M425.4731,795.4213 Q424.8921,795.7202 424.2529,795.8696 Q423.6138,796.019 422.9082,796.019 Q420.4014,796.019 419.0815,794.3671 Q417.7617,792.7153 417.7617,789.5942 Q417.7617,786.4648 419.0815,784.8129 Q420.4014,783.1611 422.9082,783.1611 Q423.6138,783.1611 424.2612,783.3105 Q424.9087,783.4599 425.4731,783.7588 L425.4731,786.4814 Q424.8423,785.9004 424.2488,785.6306 Q423.6553,785.3608 423.0244,785.3608 Q421.6797,785.3608 420.9949,786.4275 Q420.3101,787.4941 420.3101,789.5942 Q420.3101,791.686 420.9949,792.7526 Q421.6797,793.8193 423.0244,793.8193 Q423.6553,793.8193 424.2488,793.5495 Q424.8423,793.2797 425.4731,792.6987 Z " fill="#000000"/><text fill="#000000" font-family="sans-serif" font-size="14" lengthAdjust="spacing" textLength="133" x="437" y="794.5693">StudentBuysCourse</text><line style="stroke:#181818;stroke-width:0.5;" x1="409" x2="572" y1="805.2783" y2="805.2783"/><text fill="#000000" font-family="sans-serif" font-size="14" lengthAdjust="spacing" textLength="50" x="414" y="822.8134">user_id</text><text fill="#000000" font-family="sans-serif" font-size="14" lengthAdjust="spacing" textLength="66" x="414" y="839.3017">course_id</text><text fill="#000000" font-family="sans-serif" font-size="14" lengthAdjust="spacing" textLength="75" x="414" y="855.79">coupon_cd</text><text fill="#000000" font-family="sans-serif" font-size="14" lengthAdjust="spacing" textLength="127" x="414" y="872.2783">amount_of_money</text><text fill="#000000" font-family="sans-serif" font-size="14" lengthAdjust="spacing" textLength="87" x="414" y="888.7666">bought_date</text><line style="stroke:#181818;stroke-width:0.5;" x1="409" x2="572" y1="895.7197" y2="895.7197"/></g><!--class StudentTakesContents--><g id="elem_StudentTakesContents"><rect codeLine="68" fill="#F1F1F1" height="130.4414" id="StudentTakesContents" rx="2.5" ry="2.5" style="stroke:#181818;stroke-width:0.5;" width="187" x="608" y="773.2783"/><ellipse cx="623" cy="789.2783" fill="#ADD1B2" rx="11" ry="11" style="stroke:#181818;stroke-width:1.0;"/><path d="M625.4731,795.4213 Q624.8921,795.7202 624.2529,795.8696 Q623.6138,796.019 622.9082,796.019 Q620.4014,796.019 619.0815,794.3671 Q617.7617,792.7153 617.7617,789.5942 Q617.7617,786.4648 619.0815,784.8129 Q620.4014,783.1611 622.9082,783.1611 Q623.6138,783.1611 624.2612,783.3105 Q624.9087,783.4599 625.4731,783.7588 L625.4731,786.4814 Q624.8423,785.9004 624.2488,785.6306 Q623.6553,785.3608 623.0244,785.3608 Q621.6797,785.3608 620.9949,786.4275 Q620.3101,787.4941 620.3101,789.5942 Q620.3101,791.686 620.9949,792.7526 Q621.6797,793.8193 623.0244,793.8193 Q623.6553,793.8193 624.2488,793.5495 Q624.8423,793.2797 625.4731,792.6987 Z " fill="#000000"/><text fill="#000000" font-family="sans-serif" font-size="14" lengthAdjust="spacing" textLength="155" x="637" y="794.5693">StudentTakesContents</text><line style="stroke:#181818;stroke-width:0.5;" x1="609" x2="794" y1="805.2783" y2="805.2783"/><text fill="#000000" font-family="sans-serif" font-size="14" lengthAdjust="spacing" textLength="50" x="614" y="822.8134">user_id</text><text fill="#000000" font-family="sans-serif" font-size="14" lengthAdjust="spacing" textLength="95" x="614" y="839.3017">contents_type</text><text fill="#000000" font-family="sans-serif" font-size="14" lengthAdjust="spacing" textLength="79" x="614" y="855.79">contents_id</text><text fill="#000000" font-family="sans-serif" font-size="14" lengthAdjust="spacing" textLength="68" x="614" y="872.2783">start_date</text><text fill="#000000" font-family="sans-serif" font-size="14" lengthAdjust="spacing" textLength="100" x="614" y="888.7666">complete_date</text><line style="stroke:#181818;stroke-width:0.5;" x1="609" x2="794" y1="895.7197" y2="895.7197"/></g><g id="elem_GMN17"><path d="M407,1041.6083 L407,1082.2294 A0,0 0 0 0 407,1082.2294 L730,1082.2294 A0,0 0 0 0 730,1082.2294 L730,1051.6083 L720,1041.6083 L584.26,1041.6083 L662.67,904.1383 L576.26,1041.6083 L407,1041.6083 A0,0 0 0 0 407,1041.6083 " fill="#FEFFDD" style="stroke:#181818;stroke-width:0.5;"/><path d="M720,1041.6083 L720,1051.6083 L730,1051.6083 L720,1041.6083 " fill="#FEFFDD" style="stroke:#181818;stroke-width:0.5;"/><text fill="#000000" font-family="sans-serif" font-size="13" lengthAdjust="spacing" textLength="265" x="413" y="1059.1766">contents_type = {Course, Section, Lesson}</text><text fill="#000000" font-family="sans-serif" font-size="13" lengthAdjust="spacing" textLength="302" x="413" y="1074.4872">contents_id = {course_id, section_id, lesson_id}</text></g><!--class Coupon--><g id="elem_Coupon"><rect codeLine="81" fill="#F1F1F1" height="196.3945" id="Coupon" rx="2.5" ry="2.5" style="stroke:#181818;stroke-width:0.5;" width="186" x="186.5" y="740.2983"/><ellipse cx="247.75" cy="756.2983" fill="#ADD1B2" rx="11" ry="11" style="stroke:#181818;stroke-width:1.0;"/><path d="M250.2231,762.4413 Q249.6421,762.7402 249.0029,762.8896 Q248.3638,763.039 247.6582,763.039 Q245.1514,763.039 243.8315,761.3871 Q242.5117,759.7353 242.5117,756.6142 Q242.5117,753.4848 243.8315,751.8329 Q245.1514,750.1811 247.6582,750.1811 Q248.3638,750.1811 249.0112,750.3305 Q249.6587,750.4799 250.2231,750.7788 L250.2231,753.5014 Q249.5923,752.9204 248.9988,752.6506 Q248.4053,752.3808 247.7744,752.3808 Q246.4297,752.3808 245.7449,753.4475 Q245.0601,754.5141 245.0601,756.6142 Q245.0601,758.706 245.7449,759.7726 Q246.4297,760.8393 247.7744,760.8393 Q248.4053,760.8393 248.9988,760.5695 Q249.5923,760.2997 250.2231,759.7187 Z " fill="#000000"/><text fill="#000000" font-family="sans-serif" font-size="14" lengthAdjust="spacing" textLength="55" x="268.25" y="761.5893">Coupon</text><line style="stroke:#181818;stroke-width:0.5;" x1="187.5" x2="371.5" y1="772.2983" y2="772.2983"/><text fill="#000000" font-family="sans-serif" font-size="14" lengthAdjust="spacing" textLength="75" x="192.5" y="789.8334">coupon_cd</text><text fill="#000000" font-family="sans-serif" font-size="14" lengthAdjust="spacing" textLength="97" x="192.5" y="806.3217">coupon_name</text><text fill="#000000" font-family="sans-serif" font-size="14" lengthAdjust="spacing" textLength="136" x="192.5" y="822.81">coupon_description</text><text fill="#000000" font-family="sans-serif" font-size="14" lengthAdjust="spacing" textLength="156" x="192.5" y="839.2983">coupon_reduced_price</text><text fill="#000000" font-family="sans-serif" font-size="14" lengthAdjust="spacing" textLength="174" x="192.5" y="855.7866">coupon_reduced_percent</text><text fill="#000000" font-family="sans-serif" font-size="14" lengthAdjust="spacing" textLength="133" x="192.5" y="872.2748">coupon_max_apply</text><text fill="#000000" font-family="sans-serif" font-size="14" lengthAdjust="spacing" textLength="127" x="192.5" y="888.7631">coupon_start_date</text><text fill="#000000" font-family="sans-serif" font-size="14" lengthAdjust="spacing" textLength="122" x="192.5" y="905.2514">coupon_end_date</text><text fill="#000000" font-family="sans-serif" font-size="14" lengthAdjust="spacing" textLength="66" x="192.5" y="921.7397">course_id</text><line style="stroke:#181818;stroke-width:0.5;" x1="187.5" x2="371.5" y1="928.6928" y2="928.6928"/></g><!--class StudentHasCoupon--><g id="elem_StudentHasCoupon"><rect codeLine="93" fill="#F1F1F1" height="113.9531" id="StudentHasCoupon" rx="2.5" ry="2.5" style="stroke:#181818;stroke-width:0.5;" width="165" x="765" y="1004.9383"/><ellipse cx="780" cy="1020.9383" fill="#ADD1B2" rx="11" ry="11" style="stroke:#181818;stroke-width:1.0;"/><path d="M782.4731,1027.0813 Q781.8921,1027.3802 781.2529,1027.5296 Q780.6138,1027.679 779.9082,1027.679 Q777.4014,1027.679 776.0815,1026.0271 Q774.7617,1024.3753 774.7617,1021.2542 Q774.7617,1018.1248 776.0815,1016.4729 Q777.4014,1014.8211 779.9082,1014.8211 Q780.6138,1014.8211 781.2612,1014.9705 Q781.9087,1015.1199 782.4731,1015.4188 L782.4731,1018.1414 Q781.8423,1017.5604 781.2488,1017.2906 Q780.6553,1017.0208 780.0244,1017.0208 Q778.6797,1017.0208 777.9949,1018.0875 Q777.3101,1019.1541 777.3101,1021.2542 Q777.3101,1023.346 777.9949,1024.4126 Q778.6797,1025.4793 780.0244,1025.4793 Q780.6553,1025.4793 781.2488,1025.2095 Q781.8423,1024.9397 782.4731,1024.3587 Z " fill="#000000"/><text fill="#000000" font-family="sans-serif" font-size="14" lengthAdjust="spacing" textLength="133" x="794" y="1026.2293">StudentHasCoupon</text><line style="stroke:#181818;stroke-width:0.5;" x1="766" x2="929" y1="1036.9383" y2="1036.9383"/><text fill="#000000" font-family="sans-serif" font-size="14" lengthAdjust="spacing" textLength="75" x="771" y="1054.4734">coupon_cd</text><text fill="#000000" font-family="sans-serif" font-size="14" lengthAdjust="spacing" textLength="50" x="771" y="1070.9617">user_id</text><text fill="#000000" font-family="sans-serif" font-size="14" lengthAdjust="spacing" textLength="51" x="771" y="1087.45">is_used</text><text fill="#000000" font-family="sans-serif" font-size="14" lengthAdjust="spacing" textLength="92" x="771" y="1103.9383">coupon_state</text><line style="stroke:#181818;stroke-width:0.5;" x1="766" x2="929" y1="1110.8914" y2="1110.8914"/></g><g id="elem_GMN22"><path d="M694,1187.1383 L694,1212.4488 A0,0 0 0 0 694,1212.4488 L1001,1212.4488 A0,0 0 0 0 1001,1212.4488 L1001,1197.1383 L991,1187.1383 L851.5,1187.1383 L847.5,1119.3583 L843.5,1187.1383 L694,1187.1383 A0,0 0 0 0 694,1187.1383 " fill="#FEFFDD" style="stroke:#181818;stroke-width:0.5;"/><path d="M991,1187.1383 L991,1197.1383 L1001,1197.1383 L991,1187.1383 " fill="#FEFFDD" style="stroke:#181818;stroke-width:0.5;"/><text fill="#000000" font-family="sans-serif" font-size="13" lengthAdjust="spacing" textLength="286" x="700" y="1204.7066">coupon_state = {Valid, Invalid, Expired, Used}</text></g><!--class TransferMoneyToBank--><g id="elem_TransferMoneyToBank"><rect codeLine="104" fill="#F1F1F1" height="97.4648" id="TransferMoneyToBank" rx="2.5" ry="2.5" style="stroke:#181818;stroke-width:0.5;" width="186" x="424.5" y="566.3483"/><ellipse cx="439.5" cy="582.3483" fill="#ADD1B2" rx="11" ry="11" style="stroke:#181818;stroke-width:1.0;"/><path d="M441.9731,588.4913 Q441.3921,588.7902 440.7529,588.9396 Q440.1138,589.089 439.4082,589.089 Q436.9014,589.089 435.5815,587.4371 Q434.2617,585.7853 434.2617,582.6642 Q434.2617,579.5348 435.5815,577.8829 Q436.9014,576.2311 439.4082,576.2311 Q440.1138,576.2311 440.7612,576.3805 Q441.4087,576.5299 441.9731,576.8288 L441.9731,579.5514 Q441.3423,578.9704 440.7488,578.7006 Q440.1553,578.4308 439.5244,578.4308 Q438.1797,578.4308 437.4949,579.4975 Q436.8101,580.5641 436.8101,582.6642 Q436.8101,584.756 437.4949,585.8226 Q438.1797,586.8893 439.5244,586.8893 Q440.1553,586.8893 440.7488,586.6195 Q441.3423,586.3497 441.9731,585.7687 Z " fill="#000000"/><text fill="#000000" font-family="sans-serif" font-size="14" lengthAdjust="spacing" textLength="154" x="453.5" y="587.6393">TransferMoneyToBank</text><line style="stroke:#181818;stroke-width:0.5;" x1="425.5" x2="609.5" y1="598.3483" y2="598.3483"/><text fill="#000000" font-family="sans-serif" font-size="14" lengthAdjust="spacing" textLength="50" x="430.5" y="615.8834">user_id</text><text fill="#000000" font-family="sans-serif" font-size="14" lengthAdjust="spacing" textLength="121" x="430.5" y="632.3717">transfer_datetime</text><text fill="#000000" font-family="sans-serif" font-size="14" lengthAdjust="spacing" textLength="127" x="430.5" y="648.86">amount_of_money</text><line style="stroke:#181818;stroke-width:0.5;" x1="425.5" x2="609.5" y1="655.8131" y2="655.8131"/></g><!--reverse link User to Student--><g id="link_User_Student"><path codeLine="111" d="M622.0215,366.4169 C643.6215,433.7069 668.1,509.9983 686.07,566.0083 " fill="none" id="User-backto-Student" style="stroke:#181818;stroke-width:1.0;"/><polygon fill="none" points="616.52,349.2783,616.3086,368.2508,627.7344,364.5831,616.52,349.2783" style="stroke:#181818;stroke-width:1.0;"/></g><!--reverse link User to Teacher--><g id="link_User_Teacher"><path codeLine="112" d="M550.8709,365.991 C542.5409,386.551 540.72,391.0383 533.65,408.5183 " fill="none" id="User-backto-Teacher" style="stroke:#181818;stroke-width:1.0;"/><polygon fill="none" points="557.63,349.3083,545.31,363.738,556.4318,368.2441,557.63,349.3083" style="stroke:#181818;stroke-width:1.0;"/></g><!--reverse link Company to User--><g id="link_Company_User"><path codeLine="114" d="M590.5,137.5183 C590.5,155.1383 590.5,164.5583 590.5,185.3183 " fill="none" id="Company-backto-User" style="stroke:#181818;stroke-width:1.0;"/><polygon fill="#181818" points="590.5,125.5183,586.5,131.5183,590.5,137.5183,594.5,131.5183,590.5,125.5183" style="stroke:#181818;stroke-width:1.0;"/></g><!--link Student to StudentTakesContents--><g id="link_Student_StudentTakesContents"><path codeLine="116" d="M701.5,664.1283 C701.5,696.0483 701.5,732.3383 701.5,767.1583 " fill="none" id="Student-to-StudentTakesContents" style="stroke:#181818;stroke-width:1.0;"/><polygon fill="#181818" points="701.5,773.1583,705.5,764.1583,701.5,768.1583,697.5,764.1583,701.5,773.1583" style="stroke:#181818;stroke-width:1.0;"/><text fill="#000000" font-family="sans-serif" font-size="13" lengthAdjust="spacing" textLength="8" x="692.9625" y="684.3161">1</text><text fill="#000000" font-family="sans-serif" font-size="13" lengthAdjust="spacing" textLength="22" x="678.2281" y="762.3224">0..*</text></g><!--link Course to StudentTakesContents--><g id="link_Course_StudentTakesContents"><path codeLine="118" d="M389.93,670.4183 C395.75,673.9783 401.64,677.3183 407.5,680.2983 C483.78,719.1383 516.14,697.9183 590.5,740.2983 C606.41,749.3683 617.487,757.1096 631.827,769.0996 " fill="none" id="Course-to-StudentTakesContents" style="stroke:#181818;stroke-width:1.0;"/><polygon fill="#181818" points="636.43,772.9483,632.0913,764.1066,632.5942,769.741,626.9597,770.2439,636.43,772.9483" style="stroke:#181818;stroke-width:1.0;"/><text fill="#000000" font-family="sans-serif" font-size="13" lengthAdjust="spacing" textLength="8" x="397.7087" y="672.9361">1</text><text fill="#000000" font-family="sans-serif" font-size="13" lengthAdjust="spacing" textLength="22" x="606.1098" y="762.5437">0..*</text></g><!--link Teacher to Course--><g id="link_Teacher_Course"><path codeLine="120" d="M469.07,490.2083 C445.26,509.7983 420.7232,529.986 394.4232,551.626 " fill="none" id="Teacher-to-Course" style="stroke:#181818;stroke-width:1.0;"/><polygon fill="#181818" points="389.79,555.4383,399.2813,552.8087,393.651,552.2614,394.1983,546.6311,389.79,555.4383" style="stroke:#181818;stroke-width:1.0;"/><text fill="#000000" font-family="sans-serif" font-size="13" lengthAdjust="spacing" textLength="8" x="452.714" y="510.5043">1</text><text fill="#000000" font-family="sans-serif" font-size="13" lengthAdjust="spacing" textLength="22" x="397.3761" y="546.8314">0..*</text></g><!--reverse link Course to Section--><g id="link_Course_Section"><path codeLine="122" d="M237.8878,680.0358 C212.7278,700.7058 193.93,717.1183 169.5,740.2983 C156.07,753.0483 142.19,767.3883 129.47,781.0583 " fill="none" id="Course-backto-Section" style="stroke:#181818;stroke-width:1.0;"/><polygon fill="none" points="247.16,672.4183,239.9847,673.1363,237.8878,680.0358,245.0631,679.3178,247.16,672.4183" style="stroke:#181818;stroke-width:1.0;"/><text fill="#000000" font-family="sans-serif" font-size="13" lengthAdjust="spacing" textLength="8" x="231.3906" y="675.1423">1</text><text fill="#000000" font-family="sans-serif" font-size="13" lengthAdjust="spacing" textLength="22" x="112.2195" y="770.7314">1..*</text></g><!--reverse link Section to Lesson--><g id="link_Section_Lesson"><path codeLine="124" d="M79.5,907.9483 C79.5,938.5683 79.5,964.5483 79.5,996.3483 " fill="none" id="Section-backto-Lesson" style="stroke:#181818;stroke-width:1.0;"/><polygon fill="none" points="79.5,895.9483,75.5,901.9483,79.5,907.9483,83.5,901.9483,79.5,895.9483" style="stroke:#181818;stroke-width:1.0;"/><text fill="#000000" font-family="sans-serif" font-size="13" lengthAdjust="spacing" textLength="8" x="71.0375" y="916.0448">1</text><text fill="#000000" font-family="sans-serif" font-size="13" lengthAdjust="spacing" textLength="22" x="56.2969" y="985.9415">1..*</text></g><!--link Course to Coupon--><g id="link_Course_Coupon"><path codeLine="126" d="M307.11,680.7183 C303.85,699.2283 301.2719,713.9194 297.7419,733.9394 " fill="none" id="Course-to-Coupon" style="stroke:#181818;stroke-width:1.0;"/><polygon fill="#181818" points="296.7,739.8483,302.202,731.6796,297.5682,734.9242,294.3236,730.2904,296.7,739.8483" style="stroke:#181818;stroke-width:1.0;"/><text fill="#000000" font-family="sans-serif" font-size="13" lengthAdjust="spacing" textLength="8" x="297.5229" y="700.8451">0</text><text fill="#000000" font-family="sans-serif" font-size="13" lengthAdjust="spacing" textLength="22" x="275.1553" y="729.6329">0..*</text></g><!--link Student to StudentHasCoupon--><g id="link_Student_StudentHasCoupon"><path codeLine="128" d="M757.16,664.0183 C778.05,685.1983 799.79,711.7683 812.5,740.2983 C850.94,826.6183 854.131,932.4524 851.691,998.6624 " fill="none" id="Student-to-StudentHasCoupon" style="stroke:#181818;stroke-width:1.0;"/><polygon fill="#181818" points="851.47,1004.6583,855.7987,995.8117,851.6541,999.6617,847.8042,995.5171,851.47,1004.6583" style="stroke:#181818;stroke-width:1.0;"/><text fill="#000000" font-family="sans-serif" font-size="13" lengthAdjust="spacing" textLength="8" x="756.4247" y="684.545">1</text><text fill="#000000" font-family="sans-serif" font-size="13" lengthAdjust="spacing" textLength="22" x="828.6132" y="994.3534">0..*</text></g><!--link Coupon to StudentHasCoupon--><g id="link_Coupon_StudentHasCoupon"><path codeLine="130" d="M372.73,926.9783 C378.54,930.5683 384.48,933.8383 390.5,936.6983 C535.87,1005.6383 597.42,938.7083 747.5,996.6983 C753.37,998.9683 753.8824,998.9472 759.7024,1001.8272 " fill="none" id="Coupon-to-StudentHasCoupon" style="stroke:#181818;stroke-width:1.0;"/><polygon fill="#181818" points="765.08,1004.4883,758.7876,996.9116,760.5987,1002.2707,755.2395,1004.0817,765.08,1004.4883" style="stroke:#181818;stroke-width:1.0;"/><text fill="#000000" font-family="sans-serif" font-size="13" lengthAdjust="spacing" textLength="8" x="380.478" y="931.0123">1</text><text fill="#000000" font-family="sans-serif" font-size="13" lengthAdjust="spacing" textLength="22" x="735.0517" y="996.4904">0..*</text></g><!--link Student to StudentBuysCourse--><g id="link_Student_StudentBuysCourse"><path codeLine="132" d="M655.72,664.1283 C625.29,696.0483 589.1291,733.9946 555.9491,768.8146 " fill="none" id="Student-to-StudentBuysCourse" style="stroke:#181818;stroke-width:1.0;"/><polygon fill="#181818" points="551.81,773.1583,560.9145,769.4021,555.2593,769.5385,555.1229,763.8833,551.81,773.1583" style="stroke:#181818;stroke-width:1.0;"/><text fill="#000000" font-family="sans-serif" font-size="13" lengthAdjust="spacing" textLength="8" x="641.0308" y="684.3161">1</text><text fill="#000000" font-family="sans-serif" font-size="13" lengthAdjust="spacing" textLength="22" x="535.6271" y="762.3224">0..*</text></g><!--link Course to StudentBuysCourse--><g id="link_Course_StudentBuysCourse"><path codeLine="133" d="M368.71,680.7183 C391.22,709.6983 414.0284,739.0606 436.5484,768.0406 " fill="none" id="Course-to-StudentBuysCourse" style="stroke:#181818;stroke-width:1.0;"/><polygon fill="#181818" points="440.23,772.7783,437.8661,763.2173,437.162,768.8302,431.5491,768.1261,440.23,772.7783" style="stroke:#181818;stroke-width:1.0;"/><text fill="#000000" font-family="sans-serif" font-size="13" lengthAdjust="spacing" textLength="8" x="365.4754" y="700.8451">1</text><text fill="#000000" font-family="sans-serif" font-size="13" lengthAdjust="spacing" textLength="22" x="411.5286" y="762.3551">0..*</text></g><!--link Teacher to TransferMoneyToBank--><g id="link_Teacher_TransferMoneyToBank"><path codeLine="135" d="M517.5,489.9983 C517.5,512.8983 517.5,535.8783 517.5,560.0583 " fill="none" id="Teacher-to-TransferMoneyToBank" style="stroke:#181818;stroke-width:1.0;"/><polygon fill="#181818" points="517.5,566.0583,521.5,557.0583,517.5,561.0583,513.5,557.0583,517.5,566.0583" style="stroke:#181818;stroke-width:1.0;"/><text fill="#000000" font-family="sans-serif" font-size="13" lengthAdjust="spacing" textLength="8" x="508.8375" y="510.5625">1</text><text fill="#000000" font-family="sans-serif" font-size="13" lengthAdjust="spacing" textLength="22" x="493.9531" y="555.7">0..*</text></g><!--SRC=[dLPRJzH057xlhsZs1J6xHDxL1uY99ieBgw_Dq0xIiBsadIeR9A5TWo8O3G86qHWZ2Hg8QyG00kAF6NQ1V-5SssafUDbiDZDdpldETovpPf6D6b37IHktFkFaHsTrIzFC1WX3_Mu80trIqyad8al3jjZQz1mVk4svPKSkS23R-SJmeHVm8s1P0Gn3jWwy1jS04Hhp0XirjIbDSpq4zGOSHRetolnfL4-_fayEeyY2BghgTGZCCHXCQT2rTAelh0Bx_bXcbg9IMs0vjblL7UYCv0rvN0AwBBG0MZOot8WQCaa8pOZ26gP5-N80GQa4O0Iuuz8yLH_a2HFgXVJ9BSkWOX858Kmjw2OpO3j4owOAB1YQWUqZstEP656IXaeEE5xa8iCRDHpFXStCsp0qgLcfkv2V5RUPUobH_QV8jqdvK-02L8ET5NOPhX0Kmufy2o0IBVq1I8c15tKWQeQvvEKxjv18dpWmovF3gkb5fCUOhpEEwc0S4ayk8kkmr1S_Cb3JXtc9J2K2WG2NZT208hJqRenu27aERVColrhE2srz7djLbhGgAZ2bATwfNfgAgbAMQbQJixTcaAKhwn4bTsAN3W6nBvPEYCaTYqne6NvWcx3q00OceQeUEM320BxVQAh2CmbaKi8x9nCLBzRl9WWlY4Yjf1tIMsGLF5zKenHRK_Lfsk-11atpBVS1NzoOy6qITfKEiPASrmFWXgCmk4DRikuDaEbIqcf8QB6maIsAK7BRU_JZxPNkx2-DJVQhZseroLYHYE56b76oXLla-mudkpZPmQrrijNaDBjCTDdexT7xE-t3eKkT5wzFDbUF5z_Zk7sozgIxz1N7NnZ60NbNS6iV9_lqcP58LDBQnAqMEzt2oSBfybndVGx7ApWXlwzm_0d7ypXUn_5p8kdLvE2kz5VqMkswNhdIrtUvKdup9Aj_8A3GLcAPv-lpMObnyt-aulRHxlJHtXxnIPnqTZS8zj7FjzsdBxd3Naq-DWLyxfKWdgxE77z_d8CinfaiTETZ7A_bk7gaVfL-pfLF01Ki3q0WyvMIUFBbA03oeLCQBlkZSK2RgemOYQuOfQy0gIrs3j35FPBTp8oR0XEtCmyvRdHE_0NaK0bB6NgoSF9j1ySpVwAOlM0NTvQY9sCvZUSwozj71s-ErmvfDuk6sk24kiihz8uzcpxvG7hwOsUFTF16Tx7TdLrYjCvfj98PfFq6]--></g></svg>