<?xml version="1.0" encoding="us-ascii" standalone="no"?><svg xmlns="http://www.w3.org/2000/svg" xmlns:xlink="http://www.w3.org/1999/xlink" contentStyleType="text/css" height="422px" preserveAspectRatio="none" style="width:297px;height:422px;background:#FFFFFF;" version="1.1" viewBox="0 0 297 422" width="297px" zoomAndPan="magnify"><defs/><g><text fill="#000000" font-family="sans-serif" font-size="14" font-weight="bold" lengthAdjust="spacing" textLength="226" x="28.75" y="23.5352">coupon_state &#12398;&#12473;&#12486;&#12540;&#12488;&#12510;&#12471;&#12531;&#22259;</text><ellipse cx="149.5" cy="53.4883" fill="#222222" rx="10" ry="10" style="stroke:#222222;stroke-width:1.0;"/><g id="Valid"><rect fill="#F1F1F1" height="50" rx="12.5" ry="12.5" style="stroke:#181818;stroke-width:0.5;" width="54" x="122.5" y="140.4883"/><line style="stroke:#181818;stroke-width:0.5;" x1="122.5" x2="176.5" y1="166.9766" y2="166.9766"/><text fill="#000000" font-family="sans-serif" font-size="14" lengthAdjust="spacing" textLength="34" x="132.5" y="159.0234">Valid</text></g><g id="Expired"><rect fill="#F1F1F1" height="50" rx="12.5" ry="12.5" style="stroke:#181818;stroke-width:0.5;" width="73" x="7" y="267.4883"/><line style="stroke:#181818;stroke-width:0.5;" x1="7" x2="80" y1="293.9766" y2="293.9766"/><text fill="#000000" font-family="sans-serif" font-size="14" lengthAdjust="spacing" textLength="53" x="17" y="286.0234">Expired</text></g><g id="Invalid"><rect fill="#F1F1F1" height="50" rx="12.5" ry="12.5" style="stroke:#181818;stroke-width:0.5;" width="65" x="129" y="267.4883"/><line style="stroke:#181818;stroke-width:0.5;" x1="129" x2="194" y1="293.9766" y2="293.9766"/><text fill="#000000" font-family="sans-serif" font-size="14" lengthAdjust="spacing" textLength="45" x="139" y="286.0234">Invalid</text></g><g id="Used"><rect fill="#F1F1F1" height="50" rx="12.5" ry="12.5" style="stroke:#181818;stroke-width:0.5;" width="54" x="236.5" y="267.4883"/><line style="stroke:#181818;stroke-width:0.5;" x1="236.5" x2="290.5" y1="293.9766" y2="293.9766"/><text fill="#000000" font-family="sans-serif" font-size="14" lengthAdjust="spacing" textLength="34" x="246.5" y="286.0234">Used</text></g><ellipse cx="161.5" cy="405.4883" fill="none" rx="11" ry="11" style="stroke:#222222;stroke-width:1.0;"/><ellipse cx="161.5" cy="405.4883" fill="#222222" rx="6" ry="6" style="stroke:#222222;stroke-width:1.0;"/><!--link *start* to Valid--><g id="link_*start*_Valid"><path d="M149.5,63.8683 C149.5,80.5983 149.5,110.0783 149.5,134.1183 " fill="none" id="*start*-to-Valid" style="stroke:#181818;stroke-width:1.0;"/><polygon fill="#181818" points="149.5,140.1183,153.5,131.1183,149.5,135.1183,145.5,131.1183,149.5,140.1183" style="stroke:#181818;stroke-width:1.0;"/><text fill="#000000" font-family="sans-serif" font-size="13" lengthAdjust="spacing" textLength="26" x="150.5" y="107.0566">&#30330;&#34892;</text></g><!--link Valid to Expired--><g id="link_Valid_Expired"><path d="M122.04,171.8583 C96.45,178.4783 59.73,192.4883 42.5,220.4883 C34.04,234.2383 33.5004,246.5921 35.9604,261.1521 " fill="none" id="Valid-to-Expired" style="stroke:#181818;stroke-width:1.0;"/><polygon fill="#181818" points="36.96,267.0683,39.4047,257.5277,36.127,262.1382,31.5165,258.8604,36.96,267.0683" style="stroke:#181818;stroke-width:1.0;"/><text fill="#000000" font-family="sans-serif" font-size="13" lengthAdjust="spacing" textLength="52" x="43.5" y="234.0566">&#26399;&#38480;&#20999;&#12428;</text></g><!--link Valid to Invalid--><g id="link_Valid_Invalid"><path d="M122.06,189.8683 C109.78,203.2883 99.47,220.7483 106.5,237.4883 C111.26,248.8383 115.3485,254.888 124.2085,263.258 " fill="none" id="Valid-to-Invalid" style="stroke:#181818;stroke-width:1.0;"/><polygon fill="#181818" points="128.57,267.3783,124.7746,258.2901,124.9354,263.9447,119.2808,264.1055,128.57,267.3783" style="stroke:#181818;stroke-width:1.0;"/><text fill="#000000" font-family="sans-serif" font-size="13" lengthAdjust="spacing" textLength="39" x="107.5" y="234.0566">&#28961;&#21177;&#21270;</text></g><!--link Invalid to Valid--><g id="link_Invalid_Valid"><path d="M159.16,267.1483 C157.05,245.1483 154.535,218.8807 152.415,196.8607 " fill="none" id="Invalid-to-Valid" style="stroke:#181818;stroke-width:1.0;"/><polygon fill="#181818" points="151.84,190.8883,148.7209,200.2302,152.3192,195.8653,156.6841,199.4635,151.84,190.8883" style="stroke:#181818;stroke-width:1.0;"/><text fill="#000000" font-family="sans-serif" font-size="13" lengthAdjust="spacing" textLength="39" x="157.22" y="234.0566">&#20877;&#30330;&#34892;</text></g><!--link Valid to Used--><g id="link_Valid_Used"><path d="M176.07,190.8683 C185.59,199.9283 196.26,210.4583 205.5,220.4883 C219.3,235.4783 230.0827,248.5186 241.1327,262.5186 " fill="none" id="Valid-to-Used" style="stroke:#181818;stroke-width:1.0;"/><polygon fill="#181818" points="244.85,267.2283,242.4138,257.6855,241.7522,263.3035,236.1342,262.6419,244.85,267.2283" style="stroke:#181818;stroke-width:1.0;"/><text fill="#000000" font-family="sans-serif" font-size="13" lengthAdjust="spacing" textLength="39" x="221.48" y="234.0566">&#20351;&#29992;&#28168;</text></g><!--link Expired to *end*--><g id="link_Expired_*end*"><path d="M69.4,317.8483 C96.4,343.2483 132.6991,377.3979 149.4791,393.1779 " fill="none" id="Expired-to-*end*" style="stroke:#181818;stroke-width:1.0;"/><polygon fill="#181818" points="153.85,397.2883,150.0339,388.2088,150.2076,393.8629,144.5534,394.0366,153.85,397.2883" style="stroke:#181818;stroke-width:1.0;"/><text fill="#000000" font-family="sans-serif" font-size="13" lengthAdjust="spacing" textLength="26" x="117.54" y="361.0566">&#28961;&#21177;</text></g><!--link Invalid to *end*--><g id="link_Invalid_*end*"><path d="M161.5,317.8483 C161.5,341.7183 161.5,370.9483 161.5,388.1983 " fill="none" id="Invalid-to-*end*" style="stroke:#181818;stroke-width:1.0;"/><polygon fill="#181818" points="161.5,394.1983,165.5,385.1983,161.5,389.1983,157.5,385.1983,161.5,394.1983" style="stroke:#181818;stroke-width:1.0;"/><text fill="#000000" font-family="sans-serif" font-size="13" lengthAdjust="spacing" textLength="26" x="162.5" y="361.0566">&#28961;&#21177;</text></g><!--link Used to *end*--><g id="link_Used_*end*"><path d="M241.12,317.8483 C217.89,343.1183 187.0314,376.7118 172.3914,392.6318 " fill="none" id="Used-to-*end*" style="stroke:#181818;stroke-width:1.0;"/><polygon fill="#181818" points="168.33,397.0483,177.3664,393.1312,171.7145,393.3679,171.4778,387.716,168.33,397.0483" style="stroke:#181818;stroke-width:1.0;"/><text fill="#000000" font-family="sans-serif" font-size="13" lengthAdjust="spacing" textLength="39" x="213.5" y="361.0566">&#20351;&#29992;&#28168;</text></g><!--SRC=[AyaioKbLICulBSZFYoykIIn9LNZSkEvnqyx7pMsFc_SyRkvut3plSTFsnysRdyxUpCKLhHMheAjhfn2Mc9EPec2by7pchXSBUxYu87oGZ6j5GMPHAaZksPpvBsTEUDhH_hYf1qc1PruPJ7FBmgTTEv_sJ4EI3Iq6wtsoT__pAIkUxUZWWYb7jlLfMo_COfXr86cGus2cekX3aG3RW115s0G0]--></g></svg>