<?xml version="1.0" encoding="us-ascii" standalone="no"?><svg xmlns="http://www.w3.org/2000/svg" xmlns:xlink="http://www.w3.org/1999/xlink" contentStyleType="text/css" height="483px" preserveAspectRatio="none" style="width:366px;height:483px;background:#FFFFFF;" version="1.1" viewBox="0 0 366 483" width="366px" zoomAndPan="magnify"><defs/><g><text fill="#000000" font-family="sans-serif" font-size="14" font-weight="bold" lengthAdjust="spacing" textLength="122" x="121" y="28.5352">&#12471;&#12540;&#12465;&#12531;&#12473;&#22259;(&#35611;&#24107;)</text><line style="stroke:#181818;stroke-width:0.5;stroke-dasharray:5.0,5.0;" x1="29" x2="29" y1="118.9766" y2="402.7715"/><line style="stroke:#181818;stroke-width:0.5;stroke-dasharray:5.0,5.0;" x1="183" x2="183" y1="118.9766" y2="402.7715"/><line style="stroke:#181818;stroke-width:0.5;stroke-dasharray:5.0,5.0;" x1="311" x2="311" y1="118.9766" y2="402.7715"/><text fill="#000000" font-family="sans-serif" font-size="14" lengthAdjust="spacing" textLength="42" x="5" y="116.0234">&#21463;&#35611;&#29983;</text><ellipse cx="29" cy="50.9883" fill="#E2E2F0" rx="8" ry="8" style="stroke:#181818;stroke-width:0.5;"/><path d="M29,58.9883 L29,85.9883 M16,66.9883 L42,66.9883 M29,85.9883 L16,100.9883 M29,85.9883 L42,100.9883 " fill="none" style="stroke:#181818;stroke-width:0.5;"/><text fill="#000000" font-family="sans-serif" font-size="14" lengthAdjust="spacing" textLength="42" x="5" y="415.3066">&#21463;&#35611;&#29983;</text><ellipse cx="29" cy="426.7598" fill="#E2E2F0" rx="8" ry="8" style="stroke:#181818;stroke-width:0.5;"/><path d="M29,434.7598 L29,461.7598 M16,442.7598 L42,442.7598 M29,461.7598 L16,476.7598 M29,461.7598 L42,476.7598 " fill="none" style="stroke:#181818;stroke-width:0.5;"/><rect fill="#E2E2F0" height="30.4883" rx="2.5" ry="2.5" style="stroke:#181818;stroke-width:0.5;" width="126" x="120" y="87.4883"/><text fill="#000000" font-family="sans-serif" font-size="14" lengthAdjust="spacing" textLength="112" x="127" y="108.0234">&#12503;&#12521;&#12483;&#12488;&#12501;&#12457;&#12540;&#12512;</text><rect fill="#E2E2F0" height="30.4883" rx="2.5" ry="2.5" style="stroke:#181818;stroke-width:0.5;" width="126" x="120" y="401.7715"/><text fill="#000000" font-family="sans-serif" font-size="14" lengthAdjust="spacing" textLength="112" x="127" y="422.3066">&#12503;&#12521;&#12483;&#12488;&#12501;&#12457;&#12540;&#12512;</text><rect fill="#E2E2F0" height="30.4883" rx="2.5" ry="2.5" style="stroke:#181818;stroke-width:0.5;" width="98" x="262" y="87.4883"/><text fill="#000000" font-family="sans-serif" font-size="14" lengthAdjust="spacing" textLength="84" x="269" y="108.0234">&#27770;&#28168;&#12471;&#12473;&#12486;&#12512;</text><rect fill="#E2E2F0" height="30.4883" rx="2.5" ry="2.5" style="stroke:#181818;stroke-width:0.5;" width="98" x="262" y="401.7715"/><text fill="#000000" font-family="sans-serif" font-size="14" lengthAdjust="spacing" textLength="84" x="269" y="422.3066">&#27770;&#28168;&#12471;&#12473;&#12486;&#12512;</text><polygon fill="#181818" points="171,146.2871,181,150.2871,171,154.2871,175,150.2871" style="stroke:#181818;stroke-width:1.0;"/><line style="stroke:#181818;stroke-width:1.0;" x1="29" x2="177" y1="150.2871" y2="150.2871"/><text fill="#000000" font-family="sans-serif" font-size="13" lengthAdjust="spacing" textLength="104" x="36" y="145.5449">&#12467;&#12531;&#12486;&#12531;&#12484;&#12434;&#38322;&#35239;</text><polygon fill="#181818" points="40,175.5977,30,179.5977,40,183.5977,36,179.5977" style="stroke:#181818;stroke-width:1.0;"/><line style="stroke:#181818;stroke-width:1.0;" x1="34" x2="182" y1="179.5977" y2="179.5977"/><text fill="#000000" font-family="sans-serif" font-size="13" lengthAdjust="spacing" textLength="130" x="46" y="174.8555">&#12467;&#12531;&#12486;&#12531;&#12484;&#19968;&#35239;&#12434;&#34920;&#31034;</text><polygon fill="#181818" points="171,204.9082,181,208.9082,171,212.9082,175,208.9082" style="stroke:#181818;stroke-width:1.0;"/><line style="stroke:#181818;stroke-width:1.0;" x1="29" x2="177" y1="208.9082" y2="208.9082"/><text fill="#000000" font-family="sans-serif" font-size="13" lengthAdjust="spacing" textLength="104" x="36" y="204.166">&#12467;&#12531;&#12486;&#12531;&#12484;&#12434;&#36984;&#25246;</text><polygon fill="#181818" points="40,234.2188,30,238.2188,40,242.2188,36,238.2188" style="stroke:#181818;stroke-width:1.0;"/><line style="stroke:#181818;stroke-width:1.0;" x1="34" x2="182" y1="238.2188" y2="238.2188"/><text fill="#000000" font-family="sans-serif" font-size="13" lengthAdjust="spacing" textLength="130" x="46" y="233.4766">&#12467;&#12531;&#12486;&#12531;&#12484;&#35443;&#32048;&#12434;&#34920;&#31034;</text><polygon fill="#181818" points="171,263.5293,181,267.5293,171,271.5293,175,267.5293" style="stroke:#181818;stroke-width:1.0;"/><line style="stroke:#181818;stroke-width:1.0;" x1="29" x2="177" y1="267.5293" y2="267.5293"/><text fill="#000000" font-family="sans-serif" font-size="13" lengthAdjust="spacing" textLength="78" x="36" y="262.7871">&#12459;&#12540;&#12488;&#12395;&#36861;&#21152;</text><polygon fill="#181818" points="171,292.8398,181,296.8398,171,300.8398,175,296.8398" style="stroke:#181818;stroke-width:1.0;"/><line style="stroke:#181818;stroke-width:1.0;" x1="29" x2="177" y1="296.8398" y2="296.8398"/><text fill="#000000" font-family="sans-serif" font-size="13" lengthAdjust="spacing" textLength="65" x="36" y="292.0977">&#36092;&#20837;&#12434;&#30906;&#23450;</text><polygon fill="#181818" points="299,322.1504,309,326.1504,299,330.1504,303,326.1504" style="stroke:#181818;stroke-width:1.0;"/><line style="stroke:#181818;stroke-width:1.0;" x1="183" x2="305" y1="326.1504" y2="326.1504"/><text fill="#000000" font-family="sans-serif" font-size="13" lengthAdjust="spacing" textLength="104" x="190" y="321.4082">&#25903;&#25173;&#12356;&#24773;&#22577;&#12434;&#36865;&#20449;</text><polygon fill="#181818" points="194,351.4609,184,355.4609,194,359.4609,190,355.4609" style="stroke:#181818;stroke-width:1.0;"/><line style="stroke:#181818;stroke-width:1.0;stroke-dasharray:2.0,2.0;" x1="188" x2="310" y1="355.4609" y2="355.4609"/><text fill="#000000" font-family="sans-serif" font-size="13" lengthAdjust="spacing" textLength="65" x="200" y="350.7188">&#25903;&#25173;&#12356;&#30906;&#35469;</text><polygon fill="#181818" points="40,380.7715,30,384.7715,40,388.7715,36,384.7715" style="stroke:#181818;stroke-width:1.0;"/><line style="stroke:#181818;stroke-width:1.0;" x1="34" x2="182" y1="384.7715" y2="384.7715"/><text fill="#000000" font-family="sans-serif" font-size="13" lengthAdjust="spacing" textLength="78" x="46" y="380.0293">&#36092;&#20837;&#23436;&#20102;&#36890;&#30693;</text><!--SRC=[fP7BQi9058RtynIpR1U-G1Tzbr9S24AXv06IEIfHMWh52oZKMEebHhJf2CPWyM5Evk9RT2Q5RAGYTZCSXlD_yvqpJiMfbYco3S8EMOp0aMt5W5_fnK0aqJKXT_VEmoCLBprpezf3KbIqT4iHUWWX0Y3u21raeUL0S6EGtCAWaPyrPA-7xfUUJCbV4Oihs4VvB75Ds53qQAO-Kl8F3I-HhRSBDNJ8rVhp4eqeBttq8ht_5gtWtAJcEr4VcnVLUogM_PFUCavbujlFPDjSsUHbUoMR7VHg4keYYEq2N2_RZyXnCosTD2b8naJFdy_TuEy0OlcKfOs3srV3CVa1]--></g></svg>