<?xml version="1.0" encoding="us-ascii" standalone="no"?><svg xmlns="http://www.w3.org/2000/svg" xmlns:xlink="http://www.w3.org/1999/xlink" contentStyleType="text/css" height="831px" preserveAspectRatio="none" style="width:887px;height:831px;background:#FFFFFF;" version="1.1" viewBox="0 0 887 831" width="887px" zoomAndPan="magnify"><defs/><g><text fill="#000000" font-family="sans-serif" font-size="14" font-weight="bold" lengthAdjust="spacing" textLength="98" x="387.87" y="23.5352">&#12518;&#12540;&#12473;&#12465;&#12540;&#12473;&#22259;</text><!--cluster ??????--><g id="cluster_&#25945;&#32946;&#12471;&#12473;&#12486;&#12512;"><rect fill="none" height="552" rx="2.5" ry="2.5" style="stroke:#181818;stroke-width:1.0;" width="707.74" x="174" y="135.2383"/><text fill="#000000" font-family="sans-serif" font-size="14" font-weight="bold" lengthAdjust="spacing" textLength="84" x="485.87" y="150.7734">&#25945;&#32946;&#12471;&#12473;&#12486;&#12512;</text></g><g id="elem_TakeCourse"><ellipse cx="304.8711" cy="646.2425" fill="#F1F1F1" rx="114.8711" ry="25.3742" style="stroke:#181818;stroke-width:0.5;"/><text fill="#000000" font-family="sans-serif" font-size="14" lengthAdjust="spacing" textLength="196" x="206.8711" y="649.5335">&#21463;&#35611;&#12377;&#12427;&#12467;&#12531;&#12486;&#12531;&#12484;&#12434;&#36984;&#25246;&#12377;&#12427;</text></g><g id="elem_BuyCourse"><ellipse cx="304.8723" cy="568.2387" fill="#F1F1F1" rx="77.4523" ry="17.8905" style="stroke:#181818;stroke-width:0.5;"/><text fill="#000000" font-family="sans-serif" font-size="14" lengthAdjust="spacing" textLength="112" x="248.8723" y="571.5298">&#12467;&#12540;&#12473;&#12434;&#36092;&#20837;&#12377;&#12427;</text></g><g id="elem_UseCoupon"><ellipse cx="705.735" cy="652.2433" fill="#F1F1F1" rx="83.375" ry="19.075" style="stroke:#181818;stroke-width:0.5;"/><text fill="#000000" font-family="sans-serif" font-size="14" lengthAdjust="spacing" textLength="126" x="642.735" y="655.5343">&#12463;&#12540;&#12509;&#12531;&#12434;&#20351;&#29992;&#12377;&#12427;</text></g><g id="elem_ManageContent"><ellipse cx="304.8711" cy="419.2425" fill="#F1F1F1" rx="114.8711" ry="25.3742" style="stroke:#181818;stroke-width:0.5;"/><text fill="#000000" font-family="sans-serif" font-size="14" lengthAdjust="spacing" textLength="196" x="206.8711" y="422.5335">&#21463;&#35611;&#29983;&#12398;&#12467;&#12531;&#12486;&#12531;&#12484;&#12434;&#31649;&#29702;&#12377;&#12427;</text></g><g id="elem_ManageStudent"><ellipse cx="304.8723" cy="497.2387" fill="#F1F1F1" rx="77.4523" ry="17.8905" style="stroke:#181818;stroke-width:0.5;"/><text fill="#000000" font-family="sans-serif" font-size="14" lengthAdjust="spacing" textLength="112" x="248.8723" y="500.5298">&#21463;&#35611;&#29983;&#12434;&#31649;&#29702;&#12377;&#12427;</text></g><g id="elem_GMN18"><path d="M545.74,572.5783 L545.74,597.8888 L865.74,597.8888 L865.74,582.5783 L855.74,572.5783 L545.74,572.5783 " fill="#FEFFDD" style="stroke:#181818;stroke-width:0.5;"/><path d="M855.74,572.5783 L855.74,582.5783 L865.74,582.5783 L855.74,572.5783 " fill="#FEFFDD" style="stroke:#181818;stroke-width:1.0;"/><text fill="#000000" font-family="sans-serif" font-size="13" lengthAdjust="spacing" textLength="299" x="551.74" y="590.1466">&#12467;&#12531;&#12486;&#12531;&#12484;&#12399;&#12467;&#12540;&#12473;&#12289;&#12475;&#12463;&#12471;&#12519;&#12531;&#12539;&#12524;&#12483;&#12473;&#12531;&#12398;&#38598;&#21512;</text></g><g id="elem_CreateCourse"><ellipse cx="304.8689" cy="338.2401" fill="#F1F1F1" rx="89.4589" ry="20.2918" style="stroke:#181818;stroke-width:0.5;"/><text fill="#000000" font-family="sans-serif" font-size="14" lengthAdjust="spacing" textLength="140" x="234.8689" y="341.5311">&#12467;&#12531;&#12486;&#12531;&#12484;&#12434;&#20316;&#25104;&#12377;&#12427;</text></g><g id="elem_SaleCourse"><ellipse cx="304.8689" cy="190.2401" fill="#F1F1F1" rx="89.4589" ry="20.2918" style="stroke:#181818;stroke-width:0.5;"/><text fill="#000000" font-family="sans-serif" font-size="14" lengthAdjust="spacing" textLength="140" x="234.8689" y="193.5311">&#12467;&#12531;&#12486;&#12531;&#12484;&#12434;&#36009;&#22770;&#12377;&#12427;</text></g><g id="elem_CreateCoupon"><ellipse cx="304.865" cy="264.2433" fill="#F1F1F1" rx="83.375" ry="19.075" style="stroke:#181818;stroke-width:0.5;"/><text fill="#000000" font-family="sans-serif" font-size="14" lengthAdjust="spacing" textLength="126" x="241.865" y="267.5343">&#12463;&#12540;&#12509;&#12531;&#12434;&#20316;&#25104;&#12377;&#12427;</text></g><g id="elem_GMN24"><path d="M545.74,325.5783 L545.74,334.2383 L394.39,338.2383 L545.74,342.2383 L545.74,350.8888 A0,0 0 0 0 545.74,350.8888 L865.74,350.8888 A0,0 0 0 0 865.74,350.8888 L865.74,335.5783 L855.74,325.5783 L545.74,325.5783 A0,0 0 0 0 545.74,325.5783 " fill="#FEFFDD" style="stroke:#181818;stroke-width:0.5;"/><path d="M855.74,325.5783 L855.74,335.5783 L865.74,335.5783 L855.74,325.5783 " fill="#FEFFDD" style="stroke:#181818;stroke-width:0.5;"/><text fill="#000000" font-family="sans-serif" font-size="13" lengthAdjust="spacing" textLength="299" x="551.74" y="343.1466">&#12467;&#12531;&#12486;&#12531;&#12484;&#12399;&#12467;&#12540;&#12473;&#12289;&#12475;&#12463;&#12471;&#12519;&#12531;&#12539;&#12524;&#12483;&#12473;&#12531;&#12398;&#38598;&#21512;</text></g><!--entity Student--><g id="elem_Student"><ellipse cx="53" cy="635.4883" fill="#F1F1F1" rx="8" ry="8" style="stroke:#181818;stroke-width:0.5;"/><path d="M53,643.4883 L53,670.4883 M40,651.4883 L66,651.4883 M53,670.4883 L40,685.4883 M53,670.4883 L66,685.4883 " fill="none" style="stroke:#181818;stroke-width:0.5;"/><text fill="#000000" font-family="sans-serif" font-size="14" lengthAdjust="spacing" textLength="42" x="32" y="700.5234">&#21463;&#35611;&#29983;</text></g><!--entity StudentAdmin--><g id="elem_StudentAdmin"><ellipse cx="53" cy="493.4883" fill="#F1F1F1" rx="8" ry="8" style="stroke:#181818;stroke-width:0.5;"/><path d="M53,501.4883 L53,528.4883 M40,509.4883 L66,509.4883 M53,528.4883 L40,543.4883 M53,528.4883 L66,543.4883 " fill="none" style="stroke:#181818;stroke-width:0.5;"/><text fill="#000000" font-family="sans-serif" font-size="14" lengthAdjust="spacing" textLength="94" x="6" y="558.5234">&#21463;&#35611;&#29983;(&#31649;&#29702;&#32773;)</text></g><!--entity Teacher--><g id="elem_Teacher"><ellipse cx="705.74" cy="51.4883" fill="#F1F1F1" rx="8" ry="8" style="stroke:#181818;stroke-width:0.5;"/><path d="M705.74,59.4883 L705.74,86.4883 M692.74,67.4883 L718.74,67.4883 M705.74,86.4883 L692.74,101.4883 M705.74,86.4883 L718.74,101.4883 " fill="none" style="stroke:#181818;stroke-width:0.5;"/><text fill="#000000" font-family="sans-serif" font-size="14" lengthAdjust="spacing" textLength="28" x="691.74" y="116.5234">&#35611;&#24107;</text></g><!--link Student to TakeCourse--><g id="link_Student_TakeCourse"><path d="M74.32,666.2583 C89.62,666.9683 111.12,667.8683 130,668.2383 C142.44,668.4783 145.59,669.1683 158,668.2383 C176.13,666.8783 189.4893,665.42 207.9093,662.81 " fill="none" id="Student-to-TakeCourse" style="stroke:#181818;stroke-width:1.0;"/><polygon fill="#181818" points="213.85,661.9683,204.3778,659.2705,208.8994,662.6697,205.5002,667.1914,213.85,661.9683" style="stroke:#181818;stroke-width:1.0;"/><text fill="#000000" font-family="sans-serif" font-size="13" lengthAdjust="spacing" textLength="26" x="131" y="664.8066">&#36984;&#25246;</text></g><!--link Student to BuyCourse--><g id="link_Student_BuyCourse"><path d="M74.27,651.9183 C96.12,638.0583 132.32,616.5783 166,603.2383 C191.03,593.3283 213.8939,586.8586 238.6139,581.1486 " fill="none" id="Student-to-BuyCourse" style="stroke:#181818;stroke-width:1.0;"/><polygon fill="#181818" points="244.46,579.7983,234.7907,577.9265,239.5883,580.9236,236.5911,585.7212,244.46,579.7983" style="stroke:#181818;stroke-width:1.0;"/><text fill="#000000" font-family="sans-serif" font-size="13" lengthAdjust="spacing" textLength="26" x="131" y="603.7766">&#36092;&#20837;</text></g><!--link Student to UseCoupon--><g id="link_Student_UseCoupon"><path d="M74.49,699.6983 C93.89,728.4983 125.97,767.3183 166,783.2383 C270.8,824.8983 308.6,802.3383 419.74,783.2383 C521.45,765.7583 623.708,705.6461 672.598,673.8961 " fill="none" id="Student-to-UseCoupon" style="stroke:#181818;stroke-width:1.0;"/><polygon fill="#181818" points="677.63,670.6283,667.9034,672.1754,673.4367,673.3515,672.2606,678.8848,677.63,670.6283" style="stroke:#181818;stroke-width:1.0;"/><text fill="#000000" font-family="sans-serif" font-size="13" lengthAdjust="spacing" textLength="26" x="291.87" y="779.8066">&#20351;&#29992;</text></g><!--link StudentAdmin to ManageContent--><g id="link_StudentAdmin_ManageContent"><path d="M100.39,495.2983 C120.17,484.0983 143.78,471.6483 166,462.2383 C186.66,453.4883 203.9965,447.3666 225.2665,440.8066 " fill="none" id="StudentAdmin-to-ManageContent" style="stroke:#181818;stroke-width:1.0;"/><polygon fill="#181818" points="231,439.0383,221.2209,437.8684,226.2221,440.5119,223.5786,445.5131,231,439.0383" style="stroke:#181818;stroke-width:1.0;"/><text fill="#000000" font-family="sans-serif" font-size="13" lengthAdjust="spacing" textLength="26" x="131" y="462.9566">&#31649;&#29702;</text></g><!--link StudentAdmin to ManageStudent--><g id="link_StudentAdmin_ManageStudent"><path d="M100.41,518.4083 C137.81,514.5183 185.0322,509.5986 227.6522,505.1686 " fill="none" id="StudentAdmin-to-ManageStudent" style="stroke:#181818;stroke-width:1.0;"/><polygon fill="#181818" points="233.62,504.5483,224.2547,501.5002,228.6468,505.0652,225.0818,509.4573,233.62,504.5483" style="stroke:#181818;stroke-width:1.0;"/><text fill="#000000" font-family="sans-serif" font-size="13" lengthAdjust="spacing" textLength="26" x="131" y="509.1366">&#31649;&#29702;</text></g><!--link StudentAdmin to BuyCourse--><g id="link_StudentAdmin_BuyCourse"><path d="M100.13,534.0183 C109.96,536.1883 120.31,538.3683 130,540.2383 C165.73,547.0983 199.8796,552.727 232.5496,557.747 " fill="none" id="StudentAdmin-to-BuyCourse" style="stroke:#181818;stroke-width:1.0;"/><polygon fill="#181818" points="238.48,558.6583,230.1919,553.3378,233.538,557.8989,228.9769,561.245,238.48,558.6583" style="stroke:#181818;stroke-width:1.0;"/><text fill="#000000" font-family="sans-serif" font-size="13" lengthAdjust="spacing" textLength="26" x="131" y="536.8066">&#36092;&#20837;</text></g><!--link StudentAdmin to UseCoupon--><g id="link_StudentAdmin_UseCoupon"><path d="M75.42,561.8983 C83.37,576.5983 92.32,593.5783 100,609.2383 C114.37,638.5283 110.29,650.2283 130,676.2383 C142.58,692.8383 146.42,699.1483 166,706.2383 C341.45,769.7583 563.0735,704.3374 656.3235,670.8274 " fill="none" id="StudentAdmin-to-UseCoupon" style="stroke:#181818;stroke-width:1.0;"/><polygon fill="#181818" points="661.97,668.7983,652.1475,668.0776,657.2646,670.4892,654.853,675.6063,661.97,668.7983" style="stroke:#181818;stroke-width:1.0;"/><text fill="#000000" font-family="sans-serif" font-size="13" lengthAdjust="spacing" textLength="26" x="291.87" y="702.8066">&#20351;&#29992;</text></g><!--link TakeCourse to GMN18--><g id="link_TakeCourse_GMN18"><path d="M419.85,644.3883 C451.3,641.8883 485.17,637.3283 515.74,629.2383 C529.97,625.4683 531.74,619.7483 545.74,615.2383 C567.4,608.2583 591.27,602.6983 613.79,598.3483 " fill="none" id="TakeCourse-GMN18" style="stroke:#181818;stroke-width:1.0;stroke-dasharray:7.0,7.0;"/></g><!--reverse link CreateCourse to Teacher--><g id="link_CreateCourse_Teacher"><path d="M369.8118,320.7925 C388.0318,315.0425 402.22,309.6483 419.74,301.2383 C465.75,279.1583 484.19,278.3483 515.74,238.2383 C540.25,207.0783 518.96,183.4683 545.74,154.2383 C586.99,109.2183 661.48,89.8883 691.59,83.6583 " fill="none" id="CreateCourse-backto-Teacher" style="stroke:#181818;stroke-width:1.0;"/><polygon fill="#181818" points="364.09,322.5983,373.8766,323.7042,368.8582,321.0935,371.4689,316.0751,364.09,322.5983" style="stroke:#181818;stroke-width:1.0;"/><text fill="#000000" font-family="sans-serif" font-size="13" lengthAdjust="spacing" textLength="26" x="469.74" y="234.8066">&#20316;&#25104;</text></g><!--reverse link SaleCourse to Teacher--><g id="link_SaleCourse_Teacher"><path d="M357.0486,170.4433 C385.1286,159.9233 416.4,148.8983 449.74,139.2383 C540.88,112.8183 653.17,90.8783 691.33,83.7083 " fill="none" id="SaleCourse-backto-Teacher" style="stroke:#181818;stroke-width:1.0;"/><polygon fill="#181818" points="351.43,172.5483,361.2613,173.1366,356.1122,170.7941,358.4546,165.645,351.43,172.5483" style="stroke:#181818;stroke-width:1.0;"/><text fill="#000000" font-family="sans-serif" font-size="13" lengthAdjust="spacing" textLength="26" x="469.74" y="119.0966">&#36009;&#22770;</text></g><!--reverse link CreateCoupon to Teacher--><g id="link_CreateCoupon_Teacher"><path d="M366.4015,247.8962 C385.4515,242.1162 400.99,236.5783 419.74,228.2383 C479.08,201.8383 488.16,184.2683 545.74,154.2383 C598.53,126.7083 663.69,98.5383 691.33,86.8483 " fill="none" id="CreateCoupon-backto-Teacher" style="stroke:#181818;stroke-width:1.0;"/><polygon fill="#181818" points="360.66,249.6383,370.4337,250.8529,365.4446,248.1866,368.1109,243.1975,360.66,249.6383" style="stroke:#181818;stroke-width:1.0;"/><text fill="#000000" font-family="sans-serif" font-size="13" lengthAdjust="spacing" textLength="26" x="469.74" y="169.0466">&#20316;&#25104;</text></g><!--link BuyCourse to UseCoupon--><g id="link_BuyCourse_UseCoupon"><path d="M363.44,580.3583 C437.88,596.0383 561.0888,621.9816 637.3788,638.0516 " fill="none" id="BuyCourse-to-UseCoupon" style="stroke:#181818;stroke-width:1.0;"/><polygon fill="#181818" points="643.25,639.2883,635.2677,633.5191,638.3574,638.2577,633.6188,641.3473,643.25,639.2883" style="stroke:#181818;stroke-width:1.0;"/><text fill="#000000" font-family="sans-serif" font-size="13" lengthAdjust="spacing" textLength="64" x="450.74" y="596.8066">&#171;extends&#187;</text></g><!--SRC=[jPDDInj16CVlyoa6JyaXNq12mERSK-m76B9ZN19dm-u452cuCnh47Wp1KYJrfHHjYq4nUwX5fHzct6Jz5iwBIMQp9ZVt43Oyl-Vj__oNkhI1eU2NWZy8za-mM_CIzo806dYDGkf1twsjK-YuFgvIroCWgBkaYNoq0PkeMaSrNA5RieeA8r9hO01GbNe-N8eFloNztkZeR0cY05Peoy64PeAvqVMFKQUTxEpbRMx5sN3969PaV7UbmwiOLTUn3y2a7nn-FKxOGB2_QWNU5lmSRWCedvnf8i9ZmRu85WaUwRZytHMi-npU3GzEJJIlQwCwBdijFy0cNQSOORf9z13lNLZmXzPMchrHB3zHvLdtwV7_wEYtXNyALEccrC-QJAulmkliP4OIA_iZ8bBeiaUead2cmbn-BBbEUFq32uMIjIXSXaQ633FPJo9c-GmosKaYPk5KAtr23QR6bx2PTn4xRhEONJpZb9itAF4eVlMtjmPpKrdoEgoUsUE4DrDNx8I2tQl3I-lnNngu5xmlEDTEZEHjdtljkBElgs7Yw8R0CbVgwa-FtuVx7UkAPHyZcdLaAYaP_8b_3goa2chWXSQSrqHvyorLx2dUNnUx6omM2kCFNbzEZMukF5boXZ5of2kfkxzPIMDJ3yqwfLZ4czAmJb0g0V0Pl000]--></g></svg>