<?xml version="1.0" encoding="us-ascii" standalone="no"?><svg xmlns="http://www.w3.org/2000/svg" xmlns:xlink="http://www.w3.org/1999/xlink" contentStyleType="text/css" height="916px" preserveAspectRatio="none" style="width:967px;height:916px;background:#FFFFFF;" version="1.1" viewBox="0 0 967 916" width="967px" zoomAndPan="magnify"><defs/><g><text fill="#000000" font-family="sans-serif" font-size="14" font-weight="bold" lengthAdjust="spacing" textLength="84" x="434.5" y="23.5352">&#12497;&#12483;&#12465;&#12540;&#12472;&#22259;</text><!--cluster AccountManage--><g id="cluster_AccountManage"><path d="M417.5,43.4883 L530.5,43.4883 A3.75,3.75 0 0 1 533,45.9883 L540,65.9766 L667.5,65.9766 A2.5,2.5 0 0 1 670,68.4766 L670,385.4583 A2.5,2.5 0 0 1 667.5,387.9583 L417.5,387.9583 A2.5,2.5 0 0 1 415,385.4583 L415,45.9883 A2.5,2.5 0 0 1 417.5,43.4883 " fill="none" style="stroke:#000000;stroke-width:1.5;"/><line style="stroke:#000000;stroke-width:1.5;" x1="415" x2="540" y1="65.9766" y2="65.9766"/><text fill="#000000" font-family="sans-serif" font-size="14" font-weight="bold" lengthAdjust="spacing" textLength="112" x="419" y="59.0234">AccountManage</text></g><!--cluster ContentsManage--><g id="cluster_ContentsManage"><path d="M8.5,436.9583 L129.5,436.9583 A3.75,3.75 0 0 1 132,439.4583 L139,459.4466 L291.5,459.4466 A2.5,2.5 0 0 1 294,461.9466 L294,907.4083 A2.5,2.5 0 0 1 291.5,909.9083 L8.5,909.9083 A2.5,2.5 0 0 1 6,907.4083 L6,439.4583 A2.5,2.5 0 0 1 8.5,436.9583 " fill="none" style="stroke:#000000;stroke-width:1.5;"/><line style="stroke:#000000;stroke-width:1.5;" x1="6" x2="139" y1="459.4466" y2="459.4466"/><text fill="#000000" font-family="sans-serif" font-size="14" font-weight="bold" lengthAdjust="spacing" textLength="120" x="10" y="452.4934">ContentsManage</text></g><!--cluster BillingManage--><g id="cluster_BillingManage"><path d="M320.5,812.4183 L423.5,812.4183 A3.75,3.75 0 0 1 426,814.9183 L433,834.9066 L957.5,834.9066 A2.5,2.5 0 0 1 960,837.4066 L960,907.4083 A2.5,2.5 0 0 1 957.5,909.9083 L320.5,909.9083 A2.5,2.5 0 0 1 318,907.4083 L318,814.9183 A2.5,2.5 0 0 1 320.5,812.4183 " fill="none" style="stroke:#000000;stroke-width:1.5;"/><line style="stroke:#000000;stroke-width:1.5;" x1="318" x2="433" y1="834.9066" y2="834.9066"/><text fill="#000000" font-family="sans-serif" font-size="14" font-weight="bold" lengthAdjust="spacing" textLength="102" x="322" y="827.9534">BillingManage</text></g><!--entity User--><g id="elem_User"><rect fill="#F1F1F1" height="46.4883" rx="2.5" ry="2.5" style="stroke:#181818;stroke-width:0.5;" width="71" x="475.5" y="201.9783"/><rect fill="#F1F1F1" height="10" style="stroke:#181818;stroke-width:0.5;" width="15" x="526.5" y="206.9783"/><rect fill="#F1F1F1" height="2" style="stroke:#181818;stroke-width:0.5;" width="4" x="524.5" y="208.9783"/><rect fill="#F1F1F1" height="2" style="stroke:#181818;stroke-width:0.5;" width="4" x="524.5" y="212.9783"/><text fill="#000000" font-family="sans-serif" font-size="14" lengthAdjust="spacing" textLength="31" x="490.5" y="235.5134">User</text></g><!--entity Student--><g id="elem_Student"><rect fill="#F1F1F1" height="46.4883" rx="2.5" ry="2.5" style="stroke:#181818;stroke-width:0.5;" width="93" x="431.5" y="325.4683"/><rect fill="#F1F1F1" height="10" style="stroke:#181818;stroke-width:0.5;" width="15" x="504.5" y="330.4683"/><rect fill="#F1F1F1" height="2" style="stroke:#181818;stroke-width:0.5;" width="4" x="502.5" y="332.4683"/><rect fill="#F1F1F1" height="2" style="stroke:#181818;stroke-width:0.5;" width="4" x="502.5" y="336.4683"/><text fill="#000000" font-family="sans-serif" font-size="14" lengthAdjust="spacing" textLength="53" x="446.5" y="359.0034">Student</text></g><!--entity Teacher--><g id="elem_Teacher"><rect fill="#F1F1F1" height="46.4883" rx="2.5" ry="2.5" style="stroke:#181818;stroke-width:0.5;" width="95" x="559.5" y="325.4683"/><rect fill="#F1F1F1" height="10" style="stroke:#181818;stroke-width:0.5;" width="15" x="634.5" y="330.4683"/><rect fill="#F1F1F1" height="2" style="stroke:#181818;stroke-width:0.5;" width="4" x="632.5" y="332.4683"/><rect fill="#F1F1F1" height="2" style="stroke:#181818;stroke-width:0.5;" width="4" x="632.5" y="336.4683"/><text fill="#000000" font-family="sans-serif" font-size="14" lengthAdjust="spacing" textLength="55" x="574.5" y="359.0034">Teacher</text></g><!--entity Company--><g id="elem_Company"><rect fill="#F1F1F1" height="46.4883" rx="2.5" ry="2.5" style="stroke:#181818;stroke-width:0.5;" width="105" x="458.5" y="78.4883"/><rect fill="#F1F1F1" height="10" style="stroke:#181818;stroke-width:0.5;" width="15" x="543.5" y="83.4883"/><rect fill="#F1F1F1" height="2" style="stroke:#181818;stroke-width:0.5;" width="4" x="541.5" y="85.4883"/><rect fill="#F1F1F1" height="2" style="stroke:#181818;stroke-width:0.5;" width="4" x="541.5" y="89.4883"/><text fill="#000000" font-family="sans-serif" font-size="14" lengthAdjust="spacing" textLength="65" x="473.5" y="112.0234">Company</text></g><!--entity Course--><g id="elem_Course"><rect fill="#F1F1F1" height="46.4883" rx="2.5" ry="2.5" style="stroke:#181818;stroke-width:0.5;" width="89" x="186.5" y="579.4483"/><rect fill="#F1F1F1" height="10" style="stroke:#181818;stroke-width:0.5;" width="15" x="255.5" y="584.4483"/><rect fill="#F1F1F1" height="2" style="stroke:#181818;stroke-width:0.5;" width="4" x="253.5" y="586.4483"/><rect fill="#F1F1F1" height="2" style="stroke:#181818;stroke-width:0.5;" width="4" x="253.5" y="590.4483"/><text fill="#000000" font-family="sans-serif" font-size="14" lengthAdjust="spacing" textLength="49" x="201.5" y="612.9834">Course</text></g><!--entity Section--><g id="elem_Section"><rect fill="#F1F1F1" height="46.4883" rx="2.5" ry="2.5" style="stroke:#181818;stroke-width:0.5;" width="90" x="59" y="702.9283"/><rect fill="#F1F1F1" height="10" style="stroke:#181818;stroke-width:0.5;" width="15" x="129" y="707.9283"/><rect fill="#F1F1F1" height="2" style="stroke:#181818;stroke-width:0.5;" width="4" x="127" y="709.9283"/><rect fill="#F1F1F1" height="2" style="stroke:#181818;stroke-width:0.5;" width="4" x="127" y="713.9283"/><text fill="#000000" font-family="sans-serif" font-size="14" lengthAdjust="spacing" textLength="50" x="74" y="736.4634">Section</text></g><!--entity Lesson--><g id="elem_Lesson"><rect fill="#F1F1F1" height="46.4883" rx="2.5" ry="2.5" style="stroke:#181818;stroke-width:0.5;" width="87" x="40.5" y="847.4183"/><rect fill="#F1F1F1" height="10" style="stroke:#181818;stroke-width:0.5;" width="15" x="107.5" y="852.4183"/><rect fill="#F1F1F1" height="2" style="stroke:#181818;stroke-width:0.5;" width="4" x="105.5" y="854.4183"/><rect fill="#F1F1F1" height="2" style="stroke:#181818;stroke-width:0.5;" width="4" x="105.5" y="858.4183"/><text fill="#000000" font-family="sans-serif" font-size="14" lengthAdjust="spacing" textLength="47" x="55.5" y="880.9534">Lesson</text></g><!--entity StudentTakesContents--><g id="elem_StudentTakesContents"><rect fill="#F1F1F1" height="46.4883" rx="2.5" ry="2.5" style="stroke:#181818;stroke-width:0.5;" width="195" x="39.5" y="471.9583"/><rect fill="#F1F1F1" height="10" style="stroke:#181818;stroke-width:0.5;" width="15" x="214.5" y="476.9583"/><rect fill="#F1F1F1" height="2" style="stroke:#181818;stroke-width:0.5;" width="4" x="212.5" y="478.9583"/><rect fill="#F1F1F1" height="2" style="stroke:#181818;stroke-width:0.5;" width="4" x="212.5" y="482.9583"/><text fill="#000000" font-family="sans-serif" font-size="14" lengthAdjust="spacing" textLength="155" x="54.5" y="505.4934">StudentTakesContents</text></g><!--entity Coupon--><g id="elem_Coupon"><rect fill="#F1F1F1" height="46.4883" rx="2.5" ry="2.5" style="stroke:#181818;stroke-width:0.5;" width="95" x="183.5" y="702.9283"/><rect fill="#F1F1F1" height="10" style="stroke:#181818;stroke-width:0.5;" width="15" x="258.5" y="707.9283"/><rect fill="#F1F1F1" height="2" style="stroke:#181818;stroke-width:0.5;" width="4" x="256.5" y="709.9283"/><rect fill="#F1F1F1" height="2" style="stroke:#181818;stroke-width:0.5;" width="4" x="256.5" y="713.9283"/><text fill="#000000" font-family="sans-serif" font-size="14" lengthAdjust="spacing" textLength="55" x="198.5" y="736.4634">Coupon</text></g><!--entity TransferMoneyToBank--><g id="elem_TransferMoneyToBank"><rect fill="#F1F1F1" height="46.4883" rx="2.5" ry="2.5" style="stroke:#181818;stroke-width:0.5;" width="194" x="750" y="847.4183"/><rect fill="#F1F1F1" height="10" style="stroke:#181818;stroke-width:0.5;" width="15" x="924" y="852.4183"/><rect fill="#F1F1F1" height="2" style="stroke:#181818;stroke-width:0.5;" width="4" x="922" y="854.4183"/><rect fill="#F1F1F1" height="2" style="stroke:#181818;stroke-width:0.5;" width="4" x="922" y="858.4183"/><text fill="#000000" font-family="sans-serif" font-size="14" lengthAdjust="spacing" textLength="154" x="765" y="880.9534">TransferMoneyToBank</text></g><!--entity StudentHasCoupon--><g id="elem_StudentHasCoupon"><rect fill="#F1F1F1" height="46.4883" rx="2.5" ry="2.5" style="stroke:#181818;stroke-width:0.5;" width="173" x="334.5" y="847.4183"/><rect fill="#F1F1F1" height="10" style="stroke:#181818;stroke-width:0.5;" width="15" x="487.5" y="852.4183"/><rect fill="#F1F1F1" height="2" style="stroke:#181818;stroke-width:0.5;" width="4" x="485.5" y="854.4183"/><rect fill="#F1F1F1" height="2" style="stroke:#181818;stroke-width:0.5;" width="4" x="485.5" y="858.4183"/><text fill="#000000" font-family="sans-serif" font-size="14" lengthAdjust="spacing" textLength="133" x="349.5" y="880.9534">StudentHasCoupon</text></g><!--entity StudentBuysCourse--><g id="elem_StudentBuysCourse"><rect fill="#F1F1F1" height="46.4883" rx="2.5" ry="2.5" style="stroke:#181818;stroke-width:0.5;" width="173" x="542.5" y="847.4183"/><rect fill="#F1F1F1" height="10" style="stroke:#181818;stroke-width:0.5;" width="15" x="695.5" y="852.4183"/><rect fill="#F1F1F1" height="2" style="stroke:#181818;stroke-width:0.5;" width="4" x="693.5" y="854.4183"/><rect fill="#F1F1F1" height="2" style="stroke:#181818;stroke-width:0.5;" width="4" x="693.5" y="858.4183"/><text fill="#000000" font-family="sans-serif" font-size="14" lengthAdjust="spacing" textLength="133" x="557.5" y="880.9534">StudentBuysCourse</text></g><!--link User to Student--><g id="link_User_Student"><path d="M504.87,248.7883 C498.94,270.6083 494.7238,286.1165 488.8138,307.8965 " fill="none" id="User-to-Student" style="stroke:#181818;stroke-width:1.0;"/><polygon fill="none" points="484.1,325.2683,494.6044,309.4678,483.0232,306.3252,484.1,325.2683" style="stroke:#181818;stroke-width:1.0;"/><text fill="#000000" font-family="sans-serif" font-size="13" lengthAdjust="spacing" textLength="26" x="497.48" y="292.0366">&#32153;&#25215;</text></g><!--link User to Teacher--><g id="link_User_Teacher"><path d="M528.83,248.7883 C546.07,270.6083 560.8903,289.3652 578.1003,311.1452 " fill="none" id="User-to-Teacher" style="stroke:#181818;stroke-width:1.0;"/><polygon fill="none" points="589.26,325.2683,582.808,307.4253,573.3926,314.8651,589.26,325.2683" style="stroke:#181818;stroke-width:1.0;"/><text fill="#000000" font-family="sans-serif" font-size="13" lengthAdjust="spacing" textLength="26" x="565.75" y="292.0366">&#32153;&#25215;</text></g><!--reverse link Company to User--><g id="link_Company_User"><path d="M511,137.2983 C511,159.1183 511,179.9983 511,201.7783 " fill="none" id="Company-backto-User" style="stroke:#181818;stroke-width:1.0;"/><polygon fill="none" points="511,125.2983,507,131.2983,511,137.2983,515,131.2983,511,125.2983" style="stroke:#181818;stroke-width:1.0;"/><text fill="#000000" font-family="sans-serif" font-size="13" lengthAdjust="spacing" textLength="26" x="512" y="168.5466">&#25152;&#23646;</text></g><!--link Teacher to TransferMoneyToBank--><g id="link_Teacher_TransferMoneyToBank"><path d="M654.57,368.6983 C701.74,391.0383 767,433.0083 767,494.1983 C767,494.1983 767,494.1983 767,727.1783 C767,774.5583 797.0329,816.2925 820.7129,842.6825 " fill="none" id="Teacher-to-TransferMoneyToBank" style="stroke:#181818;stroke-width:1.0;"/><polygon fill="#181818" points="824.72,847.1483,821.6864,837.7782,821.3807,843.4268,815.7321,843.1211,824.72,847.1483" style="stroke:#181818;stroke-width:1.0;"/><text fill="#000000" font-family="sans-serif" font-size="13" lengthAdjust="spacing" textLength="26" x="768" y="607.7566">&#25391;&#36796;</text></g><!--link Student to StudentHasCoupon--><g id="link_Student_StudentHasCoupon"><path d="M463.02,372.1483 C446.14,399.6783 421,448.3583 421,494.1983 C421,494.1983 421,494.1983 421,727.1783 C421,769.4783 421,812.8383 421,840.9583 " fill="none" id="Student-to-StudentHasCoupon" style="stroke:#181818;stroke-width:1.0;"/><polygon fill="#181818" points="421,846.9583,425,837.9583,421,841.9583,417,837.9583,421,846.9583" style="stroke:#181818;stroke-width:1.0;"/><text fill="#000000" font-family="sans-serif" font-size="13" lengthAdjust="spacing" textLength="26" x="422" y="607.7566">&#25152;&#26377;</text></g><!--link Student to StudentBuysCourse--><g id="link_Student_StudentBuysCourse"><path d="M488.56,372.1683 C500.71,400.1183 519,449.6083 519,494.1983 C519,494.1983 519,494.1983 519,727.1783 C519,778.1183 558.8589,818.271 591.2589,843.401 " fill="none" id="Student-to-StudentBuysCourse" style="stroke:#181818;stroke-width:1.0;"/><polygon fill="#181818" points="596,847.0783,591.3399,838.4017,592.0491,844.0139,586.4369,844.7231,596,847.0783" style="stroke:#181818;stroke-width:1.0;"/><text fill="#000000" font-family="sans-serif" font-size="13" lengthAdjust="spacing" textLength="26" x="520" y="607.7566">&#36092;&#20837;</text></g><!--link Teacher to Course--><g id="link_Teacher_Course"><path d="M590.51,372.3283 C578.88,387.2783 562.35,406.6783 545,420.9583 C458.18,492.3883 344.952,549.6516 281.242,579.2316 " fill="none" id="Teacher-to-Course" style="stroke:#181818;stroke-width:1.0;"/><polygon fill="#181818" points="275.8,581.7583,285.6475,581.5963,280.335,579.6527,282.2786,574.3402,275.8,581.7583" style="stroke:#181818;stroke-width:1.0;"/><text fill="#000000" font-family="sans-serif" font-size="13" lengthAdjust="spacing" textLength="26" x="535.49" y="500.2666">&#20316;&#25104;</text></g><!--link Course to Coupon--><g id="link_Course_Coupon"><path d="M231,626.2583 C231,648.0783 231,674.9483 231,696.7283 " fill="none" id="Course-to-Coupon" style="stroke:#181818;stroke-width:1.0;"/><polygon fill="#181818" points="231,702.7283,235,693.7283,231,697.7283,227,693.7283,231,702.7283" style="stroke:#181818;stroke-width:1.0;"/></g><!--reverse link Course to Section--><g id="link_Course_Section"><path d="M198.7386,634.5533 C175.9286,656.3733 150.23,680.9483 127.46,702.7283 " fill="none" id="Course-backto-Section" style="stroke:#181818;stroke-width:1.0;"/><polygon fill="none" points="207.41,626.2583,200.3093,627.5153,198.7386,634.5533,205.8393,633.2962,207.41,626.2583" style="stroke:#181818;stroke-width:1.0;"/><text fill="#000000" font-family="sans-serif" font-size="13" lengthAdjust="spacing" textLength="26" x="176.1" y="669.4966">&#21253;&#21547;</text></g><!--reverse link Section to Lesson--><g id="link_Section_Lesson"><path d="M99.1641,761.6421 C95.4241,788.3221 90.89,820.5583 87.15,847.1883 " fill="none" id="Section-backto-Lesson" style="stroke:#181818;stroke-width:1.0;"/><polygon fill="none" points="100.83,749.7583,96.0358,755.1449,99.1641,761.6421,103.9583,756.2555,100.83,749.7583" style="stroke:#181818;stroke-width:1.0;"/><text fill="#000000" font-family="sans-serif" font-size="13" lengthAdjust="spacing" textLength="26" x="97.38" y="792.9866">&#21253;&#21547;</text></g><!--link Student to StudentTakesContents--><g id="link_Student_StudentTakesContents"><path d="M431.3,369.4983 C368.37,396.1583 262.1442,441.1667 195.9442,469.2267 " fill="none" id="Student-to-StudentTakesContents" style="stroke:#181818;stroke-width:1.0;"/><polygon fill="#181818" points="190.42,471.5683,200.2674,471.7388,195.0235,469.617,197.1453,464.3731,190.42,471.5683" style="stroke:#181818;stroke-width:1.0;"/><text fill="#000000" font-family="sans-serif" font-size="13" lengthAdjust="spacing" textLength="26" x="349.07" y="417.5266">&#21463;&#35611;</text></g><!--link StudentTakesContents to Course--><g id="link_StudentTakesContents_Course"><path d="M157.17,518.8283 C173.03,536.6283 191.0287,556.8284 206.8787,574.6184 " fill="none" id="StudentTakesContents-to-Course" style="stroke:#181818;stroke-width:1.0;"/><polygon fill="#181818" points="210.87,579.0983,207.8696,569.7176,207.5439,575.3651,201.8964,575.0394,210.87,579.0983" style="stroke:#181818;stroke-width:1.0;"/></g><!--link StudentTakesContents to Section--><g id="link_StudentTakesContents_Section"><path d="M133.78,518.5683 C127.47,562.3483 114.4161,652.9297 108.0961,696.7697 " fill="none" id="StudentTakesContents-to-Section" style="stroke:#181818;stroke-width:1.0;"/><polygon fill="#181818" points="107.24,702.7083,112.4832,694.3711,107.9534,697.7594,104.5651,693.2296,107.24,702.7083" style="stroke:#181818;stroke-width:1.0;"/></g><!--link StudentTakesContents to Lesson--><g id="link_StudentTakesContents_Lesson"><path d="M122.55,518.9083 C100.04,555.7883 57.57,631.7383 42,702.9283 C30.64,754.8383 52.686,809.8122 68.816,841.7622 " fill="none" id="StudentTakesContents-to-Lesson" style="stroke:#181818;stroke-width:1.0;"/><polygon fill="#181818" points="71.52,847.1183,71.0347,837.2814,69.2666,842.6548,63.8932,840.8868,71.52,847.1183" style="stroke:#181818;stroke-width:1.0;"/></g><!--link Coupon to StudentHasCoupon--><g id="link_Coupon_StudentHasCoupon"><path d="M257.39,749.9083 C273.71,763.7083 295.25,781.4983 315,796.4183 C338.38,814.0883 360.6109,829.5004 381.6109,843.6204 " fill="none" id="Coupon-to-StudentHasCoupon" style="stroke:#181818;stroke-width:1.0;"/><polygon fill="#181818" points="386.59,846.9683,381.3532,838.6271,382.4407,844.1784,376.8894,845.2659,386.59,846.9683" style="stroke:#181818;stroke-width:1.0;"/></g><!--link Course to StudentBuysCourse--><g id="link_Course_StudentBuysCourse"><path d="M254.9,626.4083 C298.62,666.7083 395.91,750.7583 493,796.4183 C506.27,802.6583 511.51,798.6783 525,804.4183 C551.28,815.6083 573.623,829.5198 593.643,843.5198 " fill="none" id="Course-to-StudentBuysCourse" style="stroke:#181818;stroke-width:1.0;"/><polygon fill="#181818" points="598.56,846.9583,593.4768,838.5226,594.4625,844.0929,588.8922,845.0786,598.56,846.9583" style="stroke:#181818;stroke-width:1.0;"/></g><!--SRC=[VLB1IiD04BtlLoozUCeFU2ZONZpOa_KaFInnhQ5rjsIJGr514oiD5AoWYBG82kgXOYa54QdwCMlIVeQRD9kaQMDEcNblvisy7KCpwXXo-uhRDhT6t9vmwyFjZG5OWznwvDQ0My_S7dExFNrxc7OlG0EfDLJ5CBUXgjGaHWaH4URW4O3YszrXMA_CVxSDSmyJ8upA6Aa74LQaXmr4cXLmuYlDNdlkvqjQe4Y98UfPIg58JPrXgO5LGwCaZBOmOr4GofTH3JFPAb8t6pul4FUkXvvpmy_Eq_e5hLxNI3KbNzOHOVjOBr62csLQGAIsABY9cEoVJ1VC9fEZ2zsvKL1HZlEnKt0TJj_lFETd4PRM9M3f7wIA4fekKCyvTKVtedbKeIZvrIFxxCvmzZq1iNf0NjfYtjVhEndCn6A2EXjFtDRJqWWnuVUhxxMx8Cf8E30iJWTxoTSLPMwdvNO784u5XF31OpnZniKZyEcNj-BeG0QU7FbVJdH-_v7aLGAvPeRHAKzMtCqV]--></g></svg>