<?xml version="1.0" encoding="us-ascii" standalone="no"?><svg xmlns="http://www.w3.org/2000/svg" xmlns:xlink="http://www.w3.org/1999/xlink" contentStyleType="text/css" height="1216px" preserveAspectRatio="none" style="width:1337px;height:1216px;background:#FFFFFF;" version="1.1" viewBox="0 0 1337 1216" width="1337px" zoomAndPan="magnify"><defs/><g><text fill="#000000" font-family="sans-serif" font-size="14" font-weight="bold" lengthAdjust="spacing" textLength="112" x="605.5" y="23.5352">&#12467;&#12531;&#12509;&#12540;&#12493;&#12531;&#12488;&#22259;</text><!--cluster Global Services--><g id="cluster_Global Services"><rect fill="none" height="421" rx="2.5" ry="2.5" style="stroke:#181818;stroke-width:1.0;" width="490" x="841" y="44.4883"/><path d="M960,44.4883 L960,53.9766 L950,63.9766 L841,63.9766 " fill="none" style="stroke:#181818;stroke-width:1.0;"/><text fill="#000000" font-family="sans-serif" font-size="14" font-weight="bold" lengthAdjust="spacing" textLength="109" x="844" y="59.0234">Global Services</text></g><!--cluster Application VPC--><g id="cluster_Application VPC"><rect fill="none" height="581" rx="2.5" ry="2.5" style="stroke:#181818;stroke-width:1.0;" width="904" x="202" y="489.4883"/><path d="M328,489.4883 L328,498.9766 L318,508.9766 L202,508.9766 " fill="none" style="stroke:#181818;stroke-width:1.0;"/><text fill="#000000" font-family="sans-serif" font-size="14" font-weight="bold" lengthAdjust="spacing" textLength="116" x="205" y="504.0234">Application VPC</text></g><!--cluster EC2 Cluster--><g id="cluster_EC2 Cluster"><path d="M458.5,637.4883 L543.5,637.4883 A3.75,3.75 0 0 1 546,639.9883 L553,659.9766 L668.5,659.9766 A2.5,2.5 0 0 1 671,662.4766 L671,848.9883 A2.5,2.5 0 0 1 668.5,851.4883 L458.5,851.4883 A2.5,2.5 0 0 1 456,848.9883 L456,639.9883 A2.5,2.5 0 0 1 458.5,637.4883 " fill="none" style="stroke:#000000;stroke-width:1.5;"/><line style="stroke:#000000;stroke-width:1.5;" x1="456" x2="553" y1="659.9766" y2="659.9766"/><text fill="#000000" font-family="sans-serif" font-size="14" font-weight="bold" lengthAdjust="spacing" textLength="84" x="460" y="653.0234">EC2 Cluster</text></g><!--cluster RDS Cluster--><g id="cluster_RDS Cluster"><path d="M786,819.4883 C786,809.4883 930,809.4883 930,809.4883 C930,809.4883 1074,809.4883 1074,819.4883 L1074,1028.4883 C1074,1038.4883 930,1038.4883 930,1038.4883 C930,1038.4883 786,1038.4883 786,1028.4883 L786,819.4883 " fill="none" style="stroke:#181818;stroke-width:1.0;"/><path d="M786,819.4883 C786,829.4883 930,829.4883 930,829.4883 C930,829.4883 1074,829.4883 1074,819.4883 " fill="none" style="stroke:#181818;stroke-width:1.0;"/><text fill="#000000" font-family="sans-serif" font-size="14" font-weight="bold" lengthAdjust="spacing" textLength="86" x="887" y="845.0234">RDS Cluster</text></g><!--cluster Redis Cluster--><g id="cluster_Redis Cluster"><path d="M806.5,550.4883 C806.5,540.4883 930,540.4883 930,540.4883 C930,540.4883 1053.5,540.4883 1053.5,550.4883 L1053.5,759.4883 C1053.5,769.4883 930,769.4883 930,769.4883 C930,769.4883 806.5,769.4883 806.5,759.4883 L806.5,550.4883 " fill="none" style="stroke:#181818;stroke-width:1.0;"/><path d="M806.5,550.4883 C806.5,560.4883 930,560.4883 930,560.4883 C930,560.4883 1053.5,560.4883 1053.5,550.4883 " fill="none" style="stroke:#181818;stroke-width:1.0;"/><text fill="#000000" font-family="sans-serif" font-size="14" font-weight="bold" lengthAdjust="spacing" textLength="97" x="881.5" y="576.0234">Redis Cluster</text></g><!--entity Route53--><g id="elem_Route53"><rect fill="#F1F1F1" height="46.4883" rx="2.5" ry="2.5" style="stroke:#181818;stroke-width:0.5;" width="98" x="881" y="160.2483"/><rect fill="#F1F1F1" height="10" style="stroke:#181818;stroke-width:0.5;" width="15" x="959" y="165.2483"/><rect fill="#F1F1F1" height="2" style="stroke:#181818;stroke-width:0.5;" width="4" x="957" y="167.2483"/><rect fill="#F1F1F1" height="2" style="stroke:#181818;stroke-width:0.5;" width="4" x="957" y="171.2483"/><text fill="#000000" font-family="sans-serif" font-size="14" lengthAdjust="spacing" textLength="58" x="896" y="193.7834">Route53</text></g><!--entity S3 : contents--><g id="elem_S3 : contents"><rect fill="#F1F1F1" height="46.4883" rx="2.5" ry="2.5" style="stroke:#181818;stroke-width:0.5;" width="128" x="866" y="322.2483"/><rect fill="#F1F1F1" height="10" style="stroke:#181818;stroke-width:0.5;" width="15" x="974" y="327.2483"/><rect fill="#F1F1F1" height="2" style="stroke:#181818;stroke-width:0.5;" width="4" x="972" y="329.2483"/><rect fill="#F1F1F1" height="2" style="stroke:#181818;stroke-width:0.5;" width="4" x="972" y="333.2483"/><text fill="#000000" font-family="sans-serif" font-size="14" lengthAdjust="spacing" textLength="88" x="881" y="355.7834">S3 : contents</text></g><!--entity S3 : sorry-page--><g id="elem_S3 : sorry-page"><rect fill="#F1F1F1" height="46.4883" rx="2.5" ry="2.5" style="stroke:#181818;stroke-width:0.5;" width="146" x="857" y="79.2483"/><rect fill="#F1F1F1" height="10" style="stroke:#181818;stroke-width:0.5;" width="15" x="983" y="84.2483"/><rect fill="#F1F1F1" height="2" style="stroke:#181818;stroke-width:0.5;" width="4" x="981" y="86.2483"/><rect fill="#F1F1F1" height="2" style="stroke:#181818;stroke-width:0.5;" width="4" x="981" y="90.2483"/><text fill="#000000" font-family="sans-serif" font-size="14" lengthAdjust="spacing" textLength="106" x="872" y="112.7834">S3 : sorry-page</text></g><!--entity S3 : backup--><g id="elem_S3 : backup"><rect fill="#F1F1F1" height="46.4883" rx="2.5" ry="2.5" style="stroke:#181818;stroke-width:0.5;" width="119" x="870.5" y="403.2483"/><rect fill="#F1F1F1" height="10" style="stroke:#181818;stroke-width:0.5;" width="15" x="969.5" y="408.2483"/><rect fill="#F1F1F1" height="2" style="stroke:#181818;stroke-width:0.5;" width="4" x="967.5" y="410.2483"/><rect fill="#F1F1F1" height="2" style="stroke:#181818;stroke-width:0.5;" width="4" x="967.5" y="414.2483"/><text fill="#000000" font-family="sans-serif" font-size="14" lengthAdjust="spacing" textLength="79" x="885.5" y="436.7834">S3 : backup</text></g><!--entity S3 : logs--><g id="elem_S3 : logs"><rect fill="#F1F1F1" height="46.4883" rx="2.5" ry="2.5" style="stroke:#181818;stroke-width:0.5;" width="98" x="881" y="241.2483"/><rect fill="#F1F1F1" height="10" style="stroke:#181818;stroke-width:0.5;" width="15" x="959" y="246.2483"/><rect fill="#F1F1F1" height="2" style="stroke:#181818;stroke-width:0.5;" width="4" x="957" y="248.2483"/><rect fill="#F1F1F1" height="2" style="stroke:#181818;stroke-width:0.5;" width="4" x="957" y="252.2483"/><text fill="#000000" font-family="sans-serif" font-size="14" lengthAdjust="spacing" textLength="58" x="896" y="274.7834">S3 : logs</text></g><!--entity Cloud Front--><g id="elem_Cloud Front"><rect fill="#F1F1F1" height="46.4883" rx="2.5" ry="2.5" style="stroke:#181818;stroke-width:0.5;" width="122" x="1193" y="380.2483"/><rect fill="#F1F1F1" height="10" style="stroke:#181818;stroke-width:0.5;" width="15" x="1295" y="385.2483"/><rect fill="#F1F1F1" height="2" style="stroke:#181818;stroke-width:0.5;" width="4" x="1293" y="387.2483"/><rect fill="#F1F1F1" height="2" style="stroke:#181818;stroke-width:0.5;" width="4" x="1293" y="391.2483"/><text fill="#000000" font-family="sans-serif" font-size="14" lengthAdjust="spacing" textLength="82" x="1208" y="413.7834">Cloud Front</text></g><!--entity Session Manager--><g id="elem_Session Manager"><rect fill="#F1F1F1" height="46.4883" rx="2.5" ry="2.5" style="stroke:#181818;stroke-width:0.5;" width="156" x="218" y="1006.2483"/><rect fill="#F1F1F1" height="10" style="stroke:#181818;stroke-width:0.5;" width="15" x="354" y="1011.2483"/><rect fill="#F1F1F1" height="2" style="stroke:#181818;stroke-width:0.5;" width="4" x="352" y="1013.2483"/><rect fill="#F1F1F1" height="2" style="stroke:#181818;stroke-width:0.5;" width="4" x="352" y="1017.2483"/><text fill="#000000" font-family="sans-serif" font-size="14" lengthAdjust="spacing" textLength="116" x="233" y="1039.7834">Session Manager</text></g><!--entity ALB--><g id="elem_ALB"><rect fill="#F1F1F1" height="46.4883" rx="2.5" ry="2.5" style="stroke:#181818;stroke-width:0.5;" width="65" x="263.5" y="524.2483"/><rect fill="#F1F1F1" height="10" style="stroke:#181818;stroke-width:0.5;" width="15" x="308.5" y="529.2483"/><rect fill="#F1F1F1" height="2" style="stroke:#181818;stroke-width:0.5;" width="4" x="306.5" y="531.2483"/><rect fill="#F1F1F1" height="2" style="stroke:#181818;stroke-width:0.5;" width="4" x="306.5" y="535.2483"/><text fill="#000000" font-family="sans-serif" font-size="14" lengthAdjust="spacing" textLength="25" x="278.5" y="557.7834">ALB</text></g><!--entity CloudWatch--><g id="elem_CloudWatch"><rect fill="#F1F1F1" height="46.4883" rx="2.5" ry="2.5" style="stroke:#181818;stroke-width:0.5;" width="122" x="235" y="664.2483"/><rect fill="#F1F1F1" height="10" style="stroke:#181818;stroke-width:0.5;" width="15" x="337" y="669.2483"/><rect fill="#F1F1F1" height="2" style="stroke:#181818;stroke-width:0.5;" width="4" x="335" y="671.2483"/><rect fill="#F1F1F1" height="2" style="stroke:#181818;stroke-width:0.5;" width="4" x="335" y="675.2483"/><text fill="#000000" font-family="sans-serif" font-size="14" lengthAdjust="spacing" textLength="82" x="250" y="697.7834">CloudWatch</text></g><!--entity SNS--><g id="elem_SNS"><rect fill="#F1F1F1" height="46.4883" rx="2.5" ry="2.5" style="stroke:#181818;stroke-width:0.5;" width="66" x="530.5" y="999.2483"/><rect fill="#F1F1F1" height="10" style="stroke:#181818;stroke-width:0.5;" width="15" x="576.5" y="1004.2483"/><rect fill="#F1F1F1" height="2" style="stroke:#181818;stroke-width:0.5;" width="4" x="574.5" y="1006.2483"/><rect fill="#F1F1F1" height="2" style="stroke:#181818;stroke-width:0.5;" width="4" x="574.5" y="1010.2483"/><text fill="#000000" font-family="sans-serif" font-size="14" lengthAdjust="spacing" textLength="26" x="545.5" y="1032.7834">SNS</text></g><!--entity EC2 1 : App Server--><g id="elem_EC2 1 : App Server"><rect fill="#F1F1F1" height="46.4883" rx="2.5" ry="2.5" style="stroke:#181818;stroke-width:0.5;" width="167" x="480" y="781.2483"/><rect fill="#F1F1F1" height="10" style="stroke:#181818;stroke-width:0.5;" width="15" x="627" y="786.2483"/><rect fill="#F1F1F1" height="2" style="stroke:#181818;stroke-width:0.5;" width="4" x="625" y="788.2483"/><rect fill="#F1F1F1" height="2" style="stroke:#181818;stroke-width:0.5;" width="4" x="625" y="792.2483"/><text fill="#000000" font-family="sans-serif" font-size="14" lengthAdjust="spacing" textLength="127" x="495" y="814.7834">EC2 1 : App Server</text></g><!--entity EC2 2 : App Server--><g id="elem_EC2 2 : App Server"><rect fill="#F1F1F1" height="46.4883" rx="2.5" ry="2.5" style="stroke:#181818;stroke-width:0.5;" width="167" x="480" y="700.2483"/><rect fill="#F1F1F1" height="10" style="stroke:#181818;stroke-width:0.5;" width="15" x="627" y="705.2483"/><rect fill="#F1F1F1" height="2" style="stroke:#181818;stroke-width:0.5;" width="4" x="625" y="707.2483"/><rect fill="#F1F1F1" height="2" style="stroke:#181818;stroke-width:0.5;" width="4" x="625" y="711.2483"/><text fill="#000000" font-family="sans-serif" font-size="14" lengthAdjust="spacing" textLength="127" x="495" y="733.7834">EC2 2 : App Server</text></g><!--entity RDS primary : Write DB--><g id="elem_RDS primary : Write DB"><rect fill="#F1F1F1" height="46.4883" rx="2.5" ry="2.5" style="stroke:#181818;stroke-width:0.5;" width="193" x="833.5" y="968.2483"/><rect fill="#F1F1F1" height="10" style="stroke:#181818;stroke-width:0.5;" width="15" x="1006.5" y="973.2483"/><rect fill="#F1F1F1" height="2" style="stroke:#181818;stroke-width:0.5;" width="4" x="1004.5" y="975.2483"/><rect fill="#F1F1F1" height="2" style="stroke:#181818;stroke-width:0.5;" width="4" x="1004.5" y="979.2483"/><text fill="#000000" font-family="sans-serif" font-size="14" lengthAdjust="spacing" textLength="153" x="848.5" y="1001.7834">RDS primary : Write DB</text></g><!--entity RDS secondary : Read Replica--><g id="elem_RDS secondary : Read Replica"><rect fill="#F1F1F1" height="46.4883" rx="2.5" ry="2.5" style="stroke:#181818;stroke-width:0.5;" width="240" x="810" y="887.2483"/><rect fill="#F1F1F1" height="10" style="stroke:#181818;stroke-width:0.5;" width="15" x="1030" y="892.2483"/><rect fill="#F1F1F1" height="2" style="stroke:#181818;stroke-width:0.5;" width="4" x="1028" y="894.2483"/><rect fill="#F1F1F1" height="2" style="stroke:#181818;stroke-width:0.5;" width="4" x="1028" y="898.2483"/><text fill="#000000" font-family="sans-serif" font-size="14" lengthAdjust="spacing" textLength="200" x="825" y="920.7834">RDS secondary : Read Replica</text></g><!--entity ElasticCache primary--><g id="elem_ElasticCache primary"><rect fill="#F1F1F1" height="46.4883" rx="2.5" ry="2.5" style="stroke:#181818;stroke-width:0.5;" width="182" x="839" y="699.2483"/><rect fill="#F1F1F1" height="10" style="stroke:#181818;stroke-width:0.5;" width="15" x="1001" y="704.2483"/><rect fill="#F1F1F1" height="2" style="stroke:#181818;stroke-width:0.5;" width="4" x="999" y="706.2483"/><rect fill="#F1F1F1" height="2" style="stroke:#181818;stroke-width:0.5;" width="4" x="999" y="710.2483"/><text fill="#000000" font-family="sans-serif" font-size="14" lengthAdjust="spacing" textLength="142" x="854" y="732.7834">ElasticCache primary</text></g><!--entity ElasticCache secondary--><g id="elem_ElasticCache secondary"><rect fill="#F1F1F1" height="46.4883" rx="2.5" ry="2.5" style="stroke:#181818;stroke-width:0.5;" width="199" x="830.5" y="618.2483"/><rect fill="#F1F1F1" height="10" style="stroke:#181818;stroke-width:0.5;" width="15" x="1009.5" y="623.2483"/><rect fill="#F1F1F1" height="2" style="stroke:#181818;stroke-width:0.5;" width="4" x="1007.5" y="625.2483"/><rect fill="#F1F1F1" height="2" style="stroke:#181818;stroke-width:0.5;" width="4" x="1007.5" y="629.2483"/><text fill="#000000" font-family="sans-serif" font-size="14" lengthAdjust="spacing" textLength="159" x="845.5" y="651.7834">ElasticCache secondary</text></g><!--entity ???--><g id="elem_&#12518;&#12540;&#12470;"><rect fill="#F1F1F1" height="46.4883" rx="2.5" ry="2.5" style="stroke:#181818;stroke-width:0.5;" width="82" x="7" y="1133.2483"/><rect fill="#F1F1F1" height="10" style="stroke:#181818;stroke-width:0.5;" width="15" x="69" y="1138.2483"/><rect fill="#F1F1F1" height="2" style="stroke:#181818;stroke-width:0.5;" width="4" x="67" y="1140.2483"/><rect fill="#F1F1F1" height="2" style="stroke:#181818;stroke-width:0.5;" width="4" x="67" y="1144.2483"/><text fill="#000000" font-family="sans-serif" font-size="14" lengthAdjust="spacing" textLength="42" x="22" y="1166.7834">&#12518;&#12540;&#12470;</text></g><!--entity ????--><g id="elem_&#31038;&#20869;&#29872;&#22659;"><rect fill="#F1F1F1" height="46.4883" rx="2.5" ry="2.5" style="stroke:#181818;stroke-width:0.5;" width="96" x="882" y="1086.2483"/><rect fill="#F1F1F1" height="10" style="stroke:#181818;stroke-width:0.5;" width="15" x="958" y="1091.2483"/><rect fill="#F1F1F1" height="2" style="stroke:#181818;stroke-width:0.5;" width="4" x="956" y="1093.2483"/><rect fill="#F1F1F1" height="2" style="stroke:#181818;stroke-width:0.5;" width="4" x="956" y="1097.2483"/><text fill="#000000" font-family="sans-serif" font-size="14" lengthAdjust="spacing" textLength="56" x="897" y="1119.7834">&#31038;&#20869;&#29872;&#22659;</text></g><!--reverse link S3 : contents to Cloud Front--><g id="link_S3 : contents_Cloud Front"><path d="M1000.135,357.942 C1057.645,368.302 1136.04,382.4183 1192.64,392.6183 " fill="none" id="S3 : contents-backto-Cloud Front" style="stroke:#FF0000;stroke-width:1.0;"/><polygon fill="#FF0000" points="994.23,356.8783,1002.3783,362.4105,999.1508,357.7647,1003.7966,354.5372,994.23,356.8783" style="stroke:#FF0000;stroke-width:1.0;"/><text fill="#000000" font-family="sans-serif" font-size="13" lengthAdjust="spacing" textLength="39" x="1123" y="377.9566">Origin</text></g><!--link EC2 Cluster to Redis Cluster--><g id="link_EC2 Cluster_Redis Cluster"><path d="M671.644,661.0362 C673.3746,660.9755 675.0995,660.9147 676.8162,660.8539 C680.2497,660.7322 683.6506,660.6102 687,660.4883 C720.34,659.2783 737.21,679.8183 762,657.4883 C780.35,640.9583 752.37,619.7883 770,602.4883 C776.2563,596.352 783.3802,591.4231 791.0635,587.4973 C794.9051,585.5345 798.8867,583.8223 802.9695,582.3355 C803.9902,581.9638 799.3246,583.502 800.3574,583.1581 " fill="none" id="EC2 Cluster-to-Redis Cluster" style="stroke:#FFA500;stroke-width:1.0;"/><polygon fill="#FFA500" points="806.05,581.2622,796.2472,580.3109,801.3062,582.8421,798.775,587.9011,806.05,581.2622" style="stroke:#FFA500;stroke-width:1.0;"/><text fill="#000000" font-family="sans-serif" font-size="13" lengthAdjust="spacing" textLength="65" x="696" y="654.0566">&#12461;&#12515;&#12483;&#12471;&#12517;</text></g><!--link Session Manager to EC2 Cluster--><g id="link_Session Manager_EC2 Cluster"><path d="M374.28,1028.8483 C396.16,1024.6283 417.85,1015.8083 432,998.4883 C454.09,971.4683 417.06,710.7883 440,684.4883 C442.2313,681.9308 445.7681,679.6998 450.2555,677.7538 C451.3774,677.2673 452.5586,676.7986 453.7938,676.3471 C454.4113,676.1213 449.3574,677.8184 450.0012,677.6012 " fill="none" id="Session Manager-to-EC2 Cluster" style="stroke:#008000;stroke-width:1.0;"/><polygon fill="#008000" points="455.6861,675.6826,445.8796,674.7705,450.9487,677.2814,448.4377,682.3505,455.6861,675.6826" style="stroke:#008000;stroke-width:1.0;"/></g><!--link ALB to EC2 Cluster--><g id="link_ALB_EC2 Cluster"><path d="M317.47,570.9183 C343,598.2383 389.48,642.0083 440,660.4883 C443.1475,661.6395 446.3714,662.6643 449.6504,663.5737 C451.2899,664.0284 452.9432,664.4543 454.6076,664.8527 C455.0236,664.9523 449.5937,663.7027 450.0111,663.7989 " fill="none" id="ALB-to-EC2 Cluster" style="stroke:#FF0000;stroke-width:1.0;"/><polygon fill="#FF0000" points="455.8579,665.1464,447.9861,659.2274,450.9856,664.0235,446.1895,667.023,455.8579,665.1464" style="stroke:#FF0000;stroke-width:1.0;"/></g><!--link EC2 Cluster to RDS Cluster--><g id="link_EC2 Cluster_RDS Cluster"><path d="M671.5321,678.0398 C671.9418,678.1849 672.3506,678.3315 672.7586,678.4797 C674.3906,679.0721 676.0088,679.6887 677.6105,680.3303 C680.8139,681.6136 683.9513,682.997 687,684.4883 C732.2,706.5983 729.39,731.7883 770,761.4883 C786.13,773.2858 803.9506,784.7277 821.6528,795.2744 C826.0784,797.9111 830.4965,800.4918 834.879,803.0081 C837.0702,804.2663 839.2525,805.5084 841.4224,806.7333 C842.5073,807.3458 843.5892,807.954 844.6674,808.5577 C845.2066,808.8596 840.5047,806.2379 841.042,806.5376 " fill="none" id="EC2 Cluster-to-RDS Cluster" style="stroke:#FFA500;stroke-width:1.0;"/><polygon fill="#FFA500" points="846.2821,809.4601,840.3702,801.5829,841.9153,807.0247,836.4736,808.5698,846.2821,809.4601" style="stroke:#FFA500;stroke-width:1.0;"/></g><!--link CloudWatch to SNS--><!--link CloudWatch to SNS--><g id="link_CloudWatch_SNS"><path d="M299.07,711.0683 C305.08,765.0283 327.3,898.4583 404,971.4883 C438.65,1004.4783 488.7804,1015.4333 524.1104,1019.5533 " fill="none" id="CloudWatch-to-SNS-1" style="stroke:#0000FF;stroke-width:1.0;"/><polygon fill="#0000FF" points="530.07,1020.2483,521.5939,1015.2327,525.1037,1019.6691,520.6673,1023.1789,530.07,1020.2483" style="stroke:#0000FF;stroke-width:1.0;"/><text fill="#000000" font-family="sans-serif" font-size="13" lengthAdjust="spacing" textLength="26" x="405" y="968.0566">&#36092;&#36023;</text></g><!--link CloudWatch to EC2 Cluster--><!--link CloudWatch to EC2 Cluster--><g id="link_CloudWatch_EC2 Cluster"><path d="M357.23,692.1183 C372.48,693.1083 388.84,693.9983 404,694.4883 C416.44,694.8983 420.78,699.8783 432,694.4883 C437.13,692.0283 435.09,687.3583 440,684.4883 C442.93,682.7758 445.9632,681.1983 449.0757,679.7458 C450.632,679.0195 452.2081,678.3244 453.8011,677.6593 C454.1993,677.4931 454.5986,677.3287 454.9989,677.1661 C455.1991,677.0848 449.8295,679.2345 450.0302,679.1542 " fill="none" id="CloudWatch-to-EC2 Cluster-1" style="stroke:#0000FF;stroke-width:1.0;"/><polygon fill="#0000FF" points="455.6002,676.9237,445.7582,676.5561,450.9585,678.7824,448.7321,683.9827,455.6002,676.9237" style="stroke:#0000FF;stroke-width:1.0;"/><text fill="#000000" font-family="sans-serif" font-size="13" lengthAdjust="spacing" textLength="26" x="405" y="691.0566">&#30435;&#35222;</text></g><!--link CloudWatch to RDS Cluster--><!--link CloudWatch to RDS Cluster--><g id="link_CloudWatch_RDS Cluster"><path d="M304.77,711.2183 C321.17,756.7683 364.22,855.0983 440,890.4883 C573.11,952.6483 625.34,897.0783 770,871.4883 C774.315,870.7252 778.7009,869.9802 783.1326,869.2542 C783.6866,869.1634 784.2413,869.0729 784.7966,868.9828 C785.0743,868.9377 779.429,869.8501 779.707,869.8051 " fill="none" id="CloudWatch-to-RDS Cluster-1" style="stroke:#0000FF;stroke-width:1.0;"/><polygon fill="#0000FF" points="785.6302,868.8477,776.1072,866.3351,780.6942,869.6456,777.3838,874.2326,785.6302,868.8477" style="stroke:#0000FF;stroke-width:1.0;"/><text fill="#000000" font-family="sans-serif" font-size="13" lengthAdjust="spacing" textLength="26" x="550.5" y="887.0566">&#30435;&#35222;</text></g><!--link CloudWatch to Redis Cluster--><!--link CloudWatch to Redis Cluster--><g id="link_CloudWatch_Redis Cluster"><path d="M327.07,663.7683 C354.72,643.3983 397.7,615.2183 440,601.4883 C542.63,568.1883 663.78,563.2533 759.8163,566.7345 C771.8208,567.1697 783.4329,567.7363 794.5674,568.3955 C797.351,568.5603 800.1048,568.7309 802.8274,568.9067 C803.5081,568.9506 798.1997,568.6005 798.8765,568.6451 " fill="none" id="CloudWatch-to-Redis Cluster-1" style="stroke:#0000FF;stroke-width:1.0;"/><polygon fill="#0000FF" points="804.8635,569.0395,796.1459,564.4566,799.8743,568.7108,795.62,572.4393,804.8635,569.0395" style="stroke:#0000FF;stroke-width:1.0;"/><text fill="#000000" font-family="sans-serif" font-size="13" lengthAdjust="spacing" textLength="26" x="550.5" y="562.6466">&#30435;&#35222;</text></g><!--link Route53 to ALB--><g id="link_Route53_ALB"><path d="M880.84,188.0883 C780.92,199.9483 548.34,239.7583 404,362.4883 C351.28,407.3183 318.59,485.0183 304.72,523.8983 " fill="none" id="Route53-ALB" style="stroke:#FF0000;stroke-width:1.0;"/></g><!--link ??? to ALB--><g id="link_&#12518;&#12540;&#12470;_ALB"><path d="M51.36,1132.9583 C59.81,1057.3083 93.6,815.4383 194,646.4883 C211.81,616.5183 236.2896,593.1296 258.6996,574.8596 " fill="none" id="&#12518;&#12540;&#12470;-to-ALB" style="stroke:#FF0000;stroke-width:1.0;"/><polygon fill="#FF0000" points="263.35,571.0683,253.8469,573.6549,259.4747,574.2277,258.9019,579.8555,263.35,571.0683" style="stroke:#FF0000;stroke-width:1.0;"/><text fill="#000000" font-family="sans-serif" font-size="13" lengthAdjust="spacing" textLength="65" x="120" y="667.8466">&#12522;&#12463;&#12456;&#12473;&#12488;</text></g><!--link ??? to Cloud Front--><g id="link_&#12518;&#12540;&#12470;_Cloud Front"><path d="M89.31,1164.1883 C137.9,1172.7783 222.11,1185.4883 295,1185.4883 C295,1185.4883 295,1185.4883 931,1185.4883 C1013.81,1185.4883 1055.59,1209.1883 1114,1150.4883 C1219.26,1044.7083 1246.768,548.4326 1251.808,433.1226 " fill="none" id="&#12518;&#12540;&#12470;-to-Cloud Front" style="stroke:#FF0000;stroke-width:1.0;"/><polygon fill="#FF0000" points="1252.07,427.1283,1247.6808,435.945,1251.8517,432.1235,1255.6732,436.2944,1252.07,427.1283" style="stroke:#FF0000;stroke-width:1.0;"/><text fill="#000000" font-family="sans-serif" font-size="13" lengthAdjust="spacing" textLength="65" x="531" y="1182.0566">&#12461;&#12515;&#12483;&#12471;&#12517;</text></g><!--link ALB to S3 : sorry-page--><g id="link_ALB_S3 : sorry-page"><path d="M301.88,523.8383 C314.56,468.3783 353.69,328.9683 440,253.4883 C560.22,148.3483 746.7259,116.9755 850.7159,107.2755 " fill="none" id="ALB-to-S3 : sorry-page" style="stroke:#FF0000;stroke-width:1.0;"/><polygon fill="#FF0000" points="856.69,106.7183,847.3574,103.5714,851.7116,107.1827,848.1004,111.5369,856.69,106.7183" style="stroke:#FF0000;stroke-width:1.0;"/></g><!--link ???? to Session Manager--><g id="link_&#31038;&#20869;&#29872;&#22659;_Session Manager"><path d="M881.56,1111.0883 C793.54,1113.0983 599.38,1112.9483 440,1080.4883 C410.17,1074.4183 383.7389,1065.6209 357.5689,1055.4009 " fill="none" id="&#31038;&#20869;&#29872;&#22659;-to-Session Manager" style="stroke:#008000;stroke-width:1.0;"/><polygon fill="#008000" points="351.98,1053.2183,358.9083,1060.2182,356.6374,1055.0371,361.8185,1052.7662,351.98,1053.2183" style="stroke:#008000;stroke-width:1.0;"/><text fill="#000000" font-family="sans-serif" font-size="13" lengthAdjust="spacing" textLength="61" x="533" y="1077.0566">Https&#25509;&#32154;</text></g><!--link EC2 Cluster to S3 : contents--><g id="link_EC2 Cluster_S3 : contents"><path d="M671.4273,669.477 C671.6183,669.3977 671.8089,669.3177 671.9992,669.2369 C672.7603,668.9137 673.5158,668.5779 674.265,668.2292 C675.7636,667.5319 677.2378,666.7829 678.684,665.9798 C681.5765,664.3735 684.3575,662.5502 687,660.4883 C697.2,652.5283 691.32,644.8983 695,632.4883 C723.81,535.3083 733.63,511.7983 762,414.4883 C765.74,401.6583 760.44,394.8383 770,385.4883 C795.14,360.9183 827.0737,351.4608 859.5537,347.5208 " fill="none" id="EC2 Cluster-to-S3 : contents" style="stroke:#FFA500;stroke-width:1.0;"/><polygon fill="#FFA500" points="865.51,346.7983,856.0938,343.9112,860.5464,347.4004,857.0572,351.853,865.51,346.7983" style="stroke:#FFA500;stroke-width:1.0;"/></g><!--link RDS Cluster to S3 : backup--><g id="link_RDS Cluster_S3 : backup"><path d="M801.1298,809.0183 C800.46,808.6515 799.7913,808.2818 799.1236,807.9091 C797.7882,807.1638 796.4572,806.4068 795.1314,805.6378 C789.8282,802.5621 784.6083,799.2963 779.525,795.8302 C759.1919,781.9658 741.045,764.8983 728.5,743.9883 C684.14,670.0483 686.37,625.2183 728.5,549.9883 C758.57,496.2883 816.9742,465.2571 864.8342,446.9971 " fill="none" id="RDS Cluster-to-S3 : backup" style="stroke:#181818;stroke-width:1.0;"/><polygon fill="#181818" points="870.44,444.8583,860.6054,444.3292,865.7685,446.6406,863.4571,451.8037,870.44,444.8583" style="stroke:#181818;stroke-width:1.0;"/></g><!--link CloudWatch to S3 : logs--><g id="link_CloudWatch_S3 : logs"><path d="M317.83,663.8883 C379.38,595.7983 568.74,397.9283 770,304.4883 C805.37,288.0683 842.5214,278.8668 874.9014,272.8368 " fill="none" id="CloudWatch-to-S3 : logs" style="stroke:#0000FF;stroke-width:1.0;"/><polygon fill="#0000FF" points="880.8,271.7383,871.2198,269.4536,875.8845,272.6537,872.6844,277.3184,880.8,271.7383" style="stroke:#0000FF;stroke-width:1.0;"/></g><!--link SNS to ????--><g id="link_SNS_&#31038;&#20869;&#29872;&#22659;"><path d="M596.85,1030.2083 C661.4,1045.6183 800.6239,1078.8454 875.8739,1096.8054 " fill="none" id="SNS-to-&#31038;&#20869;&#29872;&#22659;" style="stroke:#0000FF;stroke-width:1.0;"/><polygon fill="#0000FF" points="881.71,1098.1983,873.8845,1092.2182,876.8466,1097.0375,872.0273,1099.9996,881.71,1098.1983" style="stroke:#0000FF;stroke-width:1.0;"/><text fill="#000000" font-family="sans-serif" font-size="13" lengthAdjust="spacing" textLength="26" x="715.5" y="1052.2066">&#36890;&#30693;</text></g><!--SRC=[ZLJBRjD05DtFLupQ1QiiQCKcGaXfocF1Ix545f4N4tkQZ71jQsQ2LA5AjGsegEAXBa1AGI1AKgX4gGXgXLJucI5n-XUCxIRrE763PLdsdUDpxpttmGctC1H-JmJoVY-24n6yYDyt-piz02oymY5t82MD9eSceTZWnB41k0I7NtlXpqFXxG_sjautFWhlk_1V2MzB-C-bKNXFX7SWlBrILGkt3_kV0k5l3u9U_w0jlBV2w_xz_Mwm-Hg05OfMCPoxQJbrP44DqqV4m6mEFWPGNhMAq-BuogAUV6cBi0WDn-ROvYnjOmwbQmKNDN3QMaV6mvQRjbXEO_HVsN9Q9hn19TjKTdYrK9kdsDGBAbPYxaavY0tMnz6NNDSY1egaWG_kbwFeOqfN1Y1ZWdFNomkmRBKOntIKMkmoib-MZ98WpXrJNJrSc7Audf2RYACwOfAzignDPO_iBYMhYAv9cYeb7CFb9Lq5C2nJDXD81IDJFk9aydnXax3fkLY8SMAKaT748xTwpl7OgUAbbf99Xr9-Xo9RbhHmJOQQzXiLGVZVHB0h0jbOnoBed9KGCnOLuGwofUu9IODYRCSSQVe4Nxgz56FYEaz5N1JIkUmwI3LL5N6Z6O6Rn3JFN6jtDNq6PD9tBbJnF0Egw0RKgOBdBHuf4NLqJGJTQ0tuHuemiL1Iz61V-7BGlmZ_bzmHUUZCl6HBDI7xn0pNmiz_-i-U9fiZKyM96XVXBSvTDdZP2O_QuAAAPVQ7eYCiZ16ZlP5HTRvkjL8yoIx91obn566uiplilic7Ax7y1pmx3xD-Y3fGmeQza-6FOv1yfizLnOlmTACTVkY0Vm00]--></g></svg>