<?xml version="1.0" encoding="us-ascii" standalone="no"?><svg xmlns="http://www.w3.org/2000/svg" xmlns:xlink="http://www.w3.org/1999/xlink" contentStyleType="text/css" height="601px" preserveAspectRatio="none" style="width:509px;height:601px;background:#FFFFFF;" version="1.1" viewBox="0 0 509 601" width="509px" zoomAndPan="magnify"><defs/><g><text fill="#000000" font-family="sans-serif" font-size="14" font-weight="bold" lengthAdjust="spacing" textLength="136" x="185.5" y="28.5352">&#12471;&#12540;&#12465;&#12531;&#12473;&#22259;(&#21463;&#35611;&#29983;)</text><line style="stroke:#181818;stroke-width:0.5;stroke-dasharray:5.0,5.0;" x1="29" x2="29" y1="118.9766" y2="520.0137"/><line style="stroke:#181818;stroke-width:0.5;stroke-dasharray:5.0,5.0;" x1="147" x2="147" y1="118.9766" y2="520.0137"/><line style="stroke:#181818;stroke-width:0.5;stroke-dasharray:5.0,5.0;" x1="304" x2="304" y1="118.9766" y2="520.0137"/><line style="stroke:#181818;stroke-width:0.5;stroke-dasharray:5.0,5.0;" x1="440" x2="440" y1="118.9766" y2="520.0137"/><text fill="#000000" font-family="sans-serif" font-size="14" lengthAdjust="spacing" textLength="42" x="5" y="116.0234">&#21463;&#35611;&#29983;</text><ellipse cx="29" cy="50.9883" fill="#E2E2F0" rx="8" ry="8" style="stroke:#181818;stroke-width:0.5;"/><path d="M29,58.9883 L29,85.9883 M16,66.9883 L42,66.9883 M29,85.9883 L16,100.9883 M29,85.9883 L42,100.9883 " fill="none" style="stroke:#181818;stroke-width:0.5;"/><text fill="#000000" font-family="sans-serif" font-size="14" lengthAdjust="spacing" textLength="42" x="5" y="532.5488">&#21463;&#35611;&#29983;</text><ellipse cx="29" cy="544.002" fill="#E2E2F0" rx="8" ry="8" style="stroke:#181818;stroke-width:0.5;"/><path d="M29,552.002 L29,579.002 M16,560.002 L42,560.002 M29,579.002 L16,594.002 M29,579.002 L42,594.002 " fill="none" style="stroke:#181818;stroke-width:0.5;"/><rect fill="#E2E2F0" height="30.4883" rx="2.5" ry="2.5" style="stroke:#181818;stroke-width:0.5;" width="168" x="63" y="87.4883"/><text fill="#000000" font-family="sans-serif" font-size="14" lengthAdjust="spacing" textLength="154" x="70" y="108.0234">&#12450;&#12459;&#12454;&#12531;&#12488;&#31649;&#29702;&#12471;&#12473;&#12486;&#12512;</text><rect fill="#E2E2F0" height="30.4883" rx="2.5" ry="2.5" style="stroke:#181818;stroke-width:0.5;" width="168" x="63" y="519.0137"/><text fill="#000000" font-family="sans-serif" font-size="14" lengthAdjust="spacing" textLength="154" x="70" y="539.5488">&#12450;&#12459;&#12454;&#12531;&#12488;&#31649;&#29702;&#12471;&#12473;&#12486;&#12512;</text><rect fill="#E2E2F0" height="30.4883" rx="2.5" ry="2.5" style="stroke:#181818;stroke-width:0.5;" width="126" x="241" y="87.4883"/><text fill="#000000" font-family="sans-serif" font-size="14" lengthAdjust="spacing" textLength="112" x="248" y="108.0234">&#35611;&#24231;&#31649;&#29702;&#12471;&#12473;&#12486;&#12512;</text><rect fill="#E2E2F0" height="30.4883" rx="2.5" ry="2.5" style="stroke:#181818;stroke-width:0.5;" width="126" x="241" y="519.0137"/><text fill="#000000" font-family="sans-serif" font-size="14" lengthAdjust="spacing" textLength="112" x="248" y="539.5488">&#35611;&#24231;&#31649;&#29702;&#12471;&#12473;&#12486;&#12512;</text><rect fill="#E2E2F0" height="30.4883" rx="2.5" ry="2.5" style="stroke:#181818;stroke-width:0.5;" width="126" x="377" y="87.4883"/><text fill="#000000" font-family="sans-serif" font-size="14" lengthAdjust="spacing" textLength="112" x="384" y="108.0234">&#35531;&#27714;&#31649;&#29702;&#12471;&#12473;&#12486;&#12512;</text><rect fill="#E2E2F0" height="30.4883" rx="2.5" ry="2.5" style="stroke:#181818;stroke-width:0.5;" width="126" x="377" y="519.0137"/><text fill="#000000" font-family="sans-serif" font-size="14" lengthAdjust="spacing" textLength="112" x="384" y="539.5488">&#35531;&#27714;&#31649;&#29702;&#12471;&#12473;&#12486;&#12512;</text><polygon fill="#181818" points="135,146.2871,145,150.2871,135,154.2871,139,150.2871" style="stroke:#181818;stroke-width:1.0;"/><line style="stroke:#181818;stroke-width:1.0;" x1="29" x2="141" y1="150.2871" y2="150.2871"/><text fill="#000000" font-family="sans-serif" font-size="13" lengthAdjust="spacing" textLength="65" x="36" y="145.5449">&#12518;&#12540;&#12470;&#30331;&#37682;</text><polygon fill="#181818" points="40,175.5977,30,179.5977,40,183.5977,36,179.5977" style="stroke:#181818;stroke-width:1.0;"/><line style="stroke:#181818;stroke-width:1.0;" x1="34" x2="146" y1="179.5977" y2="179.5977"/><text fill="#000000" font-family="sans-serif" font-size="13" lengthAdjust="spacing" textLength="91" x="46" y="174.8555">&#12518;&#12540;&#12470;&#30331;&#37682;&#23436;&#20102;</text><polygon fill="#181818" points="292,204.9082,302,208.9082,292,212.9082,296,208.9082" style="stroke:#181818;stroke-width:1.0;"/><line style="stroke:#181818;stroke-width:1.0;" x1="29" x2="298" y1="208.9082" y2="208.9082"/><text fill="#000000" font-family="sans-serif" font-size="13" lengthAdjust="spacing" textLength="104" x="36" y="204.166">&#12467;&#12531;&#12486;&#12531;&#12484;&#12434;&#38322;&#35239;</text><polygon fill="#181818" points="40,234.2188,30,238.2188,40,242.2188,36,238.2188" style="stroke:#181818;stroke-width:1.0;"/><line style="stroke:#181818;stroke-width:1.0;" x1="34" x2="303" y1="238.2188" y2="238.2188"/><text fill="#000000" font-family="sans-serif" font-size="13" lengthAdjust="spacing" textLength="130" x="46" y="233.4766">&#12467;&#12531;&#12486;&#12531;&#12484;&#19968;&#35239;&#12434;&#34920;&#31034;</text><polygon fill="#181818" points="292,263.5293,302,267.5293,292,271.5293,296,267.5293" style="stroke:#181818;stroke-width:1.0;"/><line style="stroke:#181818;stroke-width:1.0;" x1="29" x2="298" y1="267.5293" y2="267.5293"/><text fill="#000000" font-family="sans-serif" font-size="13" lengthAdjust="spacing" textLength="104" x="36" y="262.7871">&#12467;&#12531;&#12486;&#12531;&#12484;&#12434;&#36984;&#25246;</text><polygon fill="#181818" points="40,292.8398,30,296.8398,40,300.8398,36,296.8398" style="stroke:#181818;stroke-width:1.0;"/><line style="stroke:#181818;stroke-width:1.0;" x1="34" x2="303" y1="296.8398" y2="296.8398"/><text fill="#000000" font-family="sans-serif" font-size="13" lengthAdjust="spacing" textLength="130" x="46" y="292.0977">&#12467;&#12531;&#12486;&#12531;&#12484;&#35443;&#32048;&#12434;&#34920;&#31034;</text><polygon fill="#181818" points="292,322.1504,302,326.1504,292,330.1504,296,326.1504" style="stroke:#181818;stroke-width:1.0;"/><line style="stroke:#181818;stroke-width:1.0;" x1="29" x2="298" y1="326.1504" y2="326.1504"/><text fill="#000000" font-family="sans-serif" font-size="13" lengthAdjust="spacing" textLength="78" x="36" y="321.4082">&#12459;&#12540;&#12488;&#12395;&#36861;&#21152;</text><polygon fill="#181818" points="292,351.4609,302,355.4609,292,359.4609,296,355.4609" style="stroke:#181818;stroke-width:1.0;"/><line style="stroke:#181818;stroke-width:1.0;" x1="29" x2="298" y1="355.4609" y2="355.4609"/><text fill="#000000" font-family="sans-serif" font-size="13" lengthAdjust="spacing" textLength="91" x="36" y="350.7188">&#12463;&#12540;&#12509;&#12531;&#12434;&#29031;&#20250;</text><polygon fill="#181818" points="428,380.7715,438,384.7715,428,388.7715,432,384.7715" style="stroke:#181818;stroke-width:1.0;"/><line style="stroke:#181818;stroke-width:1.0;" x1="29" x2="434" y1="384.7715" y2="384.7715"/><text fill="#000000" font-family="sans-serif" font-size="13" lengthAdjust="spacing" textLength="91" x="36" y="380.0293">&#12463;&#12540;&#12509;&#12531;&#12434;&#36969;&#29992;</text><polygon fill="#181818" points="428,410.082,438,414.082,428,418.082,432,414.082" style="stroke:#181818;stroke-width:1.0;"/><line style="stroke:#181818;stroke-width:1.0;" x1="29" x2="434" y1="414.082" y2="414.082"/><text fill="#000000" font-family="sans-serif" font-size="13" lengthAdjust="spacing" textLength="65" x="36" y="409.3398">&#36092;&#20837;&#12434;&#30906;&#23450;</text><polygon fill="#181818" points="158,439.3926,148,443.3926,158,447.3926,154,443.3926" style="stroke:#181818;stroke-width:1.0;"/><line style="stroke:#181818;stroke-width:1.0;" x1="152" x2="439" y1="443.3926" y2="443.3926"/><text fill="#000000" font-family="sans-serif" font-size="13" lengthAdjust="spacing" textLength="130" x="164" y="438.6504">&#12463;&#12524;&#12472;&#12483;&#12488;&#24773;&#22577;&#12434;&#29031;&#20250;</text><polygon fill="#181818" points="315,468.7031,305,472.7031,315,476.7031,311,472.7031" style="stroke:#181818;stroke-width:1.0;"/><line style="stroke:#181818;stroke-width:1.0;stroke-dasharray:2.0,2.0;" x1="309" x2="439" y1="472.7031" y2="472.7031"/><text fill="#000000" font-family="sans-serif" font-size="13" lengthAdjust="spacing" textLength="91" x="321" y="467.9609">&#25903;&#25173;&#12356;&#23436;&#20102;&#36890;&#30693;</text><polygon fill="#181818" points="40,498.0137,30,502.0137,40,506.0137,36,502.0137" style="stroke:#181818;stroke-width:1.0;"/><line style="stroke:#181818;stroke-width:1.0;" x1="34" x2="303" y1="502.0137" y2="502.0137"/><text fill="#000000" font-family="sans-serif" font-size="13" lengthAdjust="spacing" textLength="78" x="46" y="497.2715">&#36092;&#20837;&#23436;&#20102;&#36890;&#30693;</text><!--SRC=[fP91IiD058RtSueiTU45N7WN4HU284WEqCmqeTQ2KgAbATgqsAGb9JMDQ9f6FCpBP2QtC9D29DLeg9jX6Dxt__zxy-Gp-VnK0lm690Bi0V41h-Z0twCtFJuVC7suZz3nYNnnAHKlgBX91qSPEmRi0BO4IrhC7R5RJGZY5H0DY7ae0R5o-LVMNwUT9VeJ4Rg5oJUUkfqur50vHdQZeVsZE_Pp7oq_cu2xwVsIMpQgGhRTotmSD38uK-6ZANiA_nD32PBsuuun-CndBy-xn734B4aB58T_lDEsMPzSvEH3lYHTfjfnP6p1pdNYuHfmgioOFgqBSp-YwaHuZaFg6gYgikuwYYnpm04GafKaHAMczzLHjVgluqdqHN9r1qfpivvfms33ITtFtNHO8Zy1]--></g></svg>